<svg version="1.1" xmlns="http://www.w3.org/2000/svg" style="display: block;" viewBox="0 0 2048 1372" width="1024" height="686" preserveAspectRatio="none">
<defs>
	<linearGradient id="Gradient1" gradientUnits="userSpaceOnUse" x1="623.936" y1="526.911" x2="673.711" y2="500.443">
		<stop class="stop0" offset="0" stop-opacity="1" stop-color="rgb(67,112,91)"/>
		<stop class="stop1" offset="1" stop-opacity="1" stop-color="rgb(57,103,103)"/>
	</linearGradient>
	<linearGradient id="Gradient2" gradientUnits="userSpaceOnUse" x1="1413.55" y1="524.608" x2="1366.75" y2="500.01">
		<stop class="stop0" offset="0" stop-opacity="1" stop-color="rgb(62,109,80)"/>
		<stop class="stop1" offset="1" stop-opacity="1" stop-color="rgb(56,102,103)"/>
	</linearGradient>
	<linearGradient id="Gradient3" gradientUnits="userSpaceOnUse" x1="1421.23" y1="883.347" x2="1447.99" y2="783.666">
		<stop class="stop0" offset="0" stop-opacity="1" stop-color="rgb(105,149,160)"/>
		<stop class="stop1" offset="1" stop-opacity="1" stop-color="rgb(97,170,169)"/>
	</linearGradient>
	<linearGradient id="Gradient4" gradientUnits="userSpaceOnUse" x1="1442.59" y1="996.12" x2="1374.75" y2="766.969">
		<stop class="stop0" offset="0" stop-opacity="1" stop-color="rgb(69,94,103)"/>
		<stop class="stop1" offset="1" stop-opacity="1" stop-color="rgb(49,111,103)"/>
	</linearGradient>
	<linearGradient id="Gradient5" gradientUnits="userSpaceOnUse" x1="666.733" y1="766.314" x2="603.328" y2="986.958">
		<stop class="stop0" offset="0" stop-opacity="1" stop-color="rgb(48,110,102)"/>
		<stop class="stop1" offset="1" stop-opacity="1" stop-color="rgb(73,101,109)"/>
	</linearGradient>
	<linearGradient id="Gradient6" gradientUnits="userSpaceOnUse" x1="1019.73" y1="1026.5" x2="1021.24" y2="916.113">
		<stop class="stop0" offset="0" stop-opacity="1" stop-color="rgb(217,220,219)"/>
		<stop class="stop1" offset="1" stop-opacity="1" stop-color="rgb(190,214,225)"/>
	</linearGradient>
	<linearGradient id="Gradient7" gradientUnits="userSpaceOnUse" x1="1014.71" y1="1304.27" x2="1026.18" y2="918.789">
		<stop class="stop0" offset="0" stop-opacity="1" stop-color="rgb(59,117,119)"/>
		<stop class="stop1" offset="1" stop-opacity="1" stop-color="rgb(71,157,152)"/>
	</linearGradient>
	<linearGradient id="Gradient8" gradientUnits="userSpaceOnUse" x1="734.946" y1="629.718" x2="721.446" y2="634.581">
		<stop class="stop0" offset="0" stop-opacity="1" stop-color="rgb(54,109,90)"/>
		<stop class="stop1" offset="1" stop-opacity="1" stop-color="rgb(63,112,111)"/>
	</linearGradient>
	<linearGradient id="Gradient9" gradientUnits="userSpaceOnUse" x1="621.932" y1="1113.38" x2="613.489" y2="1113.73">
		<stop class="stop0" offset="0" stop-opacity="1" stop-color="rgb(19,6,23)"/>
		<stop class="stop1" offset="1" stop-opacity="1" stop-color="rgb(56,29,54)"/>
	</linearGradient>
</defs>
<path transform="translate(0,0)" fill="rgb(47,23,46)" d="M 979.365 86.8806 C 984.674 75.2385 994.6 61.0476 1002.8 51.2104 C 1012.32 39.7771 1024.78 38.6325 1035.56 49.1347 C 1054.32 67.1587 1070.5 100.037 1080.67 123.979 C 1086.35 137.324 1091.37 150.94 1095.71 164.777 C 1097.49 170.447 1104.03 195.639 1107.54 197.256 C 1140.25 212.31 1177.49 222.09 1207.2 243.488 C 1241.88 215.99 1271.83 187.833 1302.41 155.876 C 1328.8 128.291 1352.56 98.4856 1379.76 71.8524 C 1384.27 67.8037 1391.89 64.9991 1398.02 66.1891 C 1420.34 70.5209 1417.02 97.6477 1418.31 113.319 C 1420.98 145.754 1414.52 174.346 1408.83 205.922 C 1406.17 220.7 1401.16 240.627 1395.36 254.676 L 1389.73 269.942 C 1370.79 315.802 1350.47 345.802 1322.2 385.024 C 1328.27 405.735 1328.92 426.538 1334.38 448.486 C 1375.87 422.757 1410.94 401.466 1461.19 397.854 C 1469.66 397.245 1484.53 394.424 1491.11 400.548 C 1498.19 414.212 1477.56 438.855 1470.02 450.526 C 1454.82 474.027 1441.47 494.304 1433.43 521.399 C 1443.75 535.079 1490.76 568.704 1488.71 582.235 C 1488.03 586.689 1484.27 590.028 1480.67 592.362 C 1463.41 603.548 1407.47 618.743 1400.3 634.206 C 1401.94 661.386 1412.87 670.698 1412.07 705.254 C 1377.67 707.775 1343.19 697.006 1311.38 694.755 C 1281.62 730.625 1258.03 749.509 1216.64 772.52 C 1206.08 778.392 1185.93 787.126 1176.98 792.781 C 1178.26 815.311 1181.53 871.107 1196.08 887.265 C 1206.62 890.064 1237.13 874.288 1245.74 869.51 C 1287.54 846.33 1313.56 803.605 1319.38 756.758 C 1319.58 755.135 1322.63 749.917 1323.7 748.128 C 1326.72 744.9 1329.72 743.203 1333.93 742.039 C 1343.73 740.719 1352.24 741.008 1362.02 742.48 L 1382.14 747.566 C 1447.79 768.588 1508.31 803.142 1559.78 848.998 C 1567.25 855.706 1578.05 865.15 1584.46 872.567 L 1589.35 877.672 C 1604.06 892.272 1679.77 978.988 1662.76 996.294 C 1658.36 998.015 1653.29 996.894 1649.13 994.855 C 1617.53 979.376 1590.43 964.637 1554.44 964.786 C 1509.44 964.972 1482.33 987.747 1463.87 1026.88 C 1456.52 1042.44 1454.62 1053.95 1440.35 1065.35 C 1425.43 1060.68 1421.54 1051.26 1409.24 1043.33 C 1412.9 1057.12 1413.25 1077.66 1419.03 1088.33 C 1434.64 1117.14 1432.87 1128.7 1414.98 1156.55 C 1415.16 1174.43 1415.64 1186.26 1402.39 1200.81 C 1385.42 1219.44 1367.33 1201.21 1367.75 1230.9 C 1368.12 1257.22 1371.46 1277.83 1351.61 1298.4 C 1329.35 1321.47 1305.86 1317.59 1275.74 1317.85 L 899.675 1317.77 L 784.815 1317.93 C 765.232 1317.96 743.449 1318.59 723.968 1316.92 C 712.106 1315.9 702.333 1308.83 693.753 1300.74 C 668.792 1277.21 673.3 1246.13 672.883 1214.2 C 657.231 1212.51 647.823 1209.82 636.8 1196.95 C 626.255 1184.63 626.737 1171.6 626.681 1156.43 L 621.144 1148.17 C 620.207 1146.61 619.384 1144.78 618.576 1143.12 C 607.918 1125.38 611.037 1105.45 620.691 1088.24 C 622.687 1085.33 624.276 1083.83 626.702 1081.33 C 626.626 1073.85 627.67 1060.58 629.379 1053.19 C 630.065 1050.22 633.192 1048.46 633.983 1042.95 L 633.125 1041.89 C 619.83 1044.89 613.451 1073.85 595.169 1060.67 C 592.678 1057.38 591.555 1055.59 589.506 1052.07 L 580.091 1032.47 C 553.235 977.669 521.255 955 457.944 967.799 C 438.936 972.369 417.475 981.406 400.613 991.071 C 381.275 1002.16 365.915 998.527 379.479 974.843 C 438.335 872.082 536.994 788.5 649.84 751.317 C 670.414 744.538 695.384 735.296 715.143 745.112 C 725.938 759.334 721.957 766.53 726.26 782.403 C 741.068 837.029 790.456 876.125 843.484 889.872 C 856.293 871.784 865.332 817.64 865.654 793.555 C 865.245 793.246 864.835 792.937 864.425 792.629 C 851.4 784.418 836.295 779.197 822.578 771.757 C 798.03 758.444 775.773 742.294 755.398 723.202 C 747.965 716.116 737.519 703.615 730.141 695.608 C 711.215 694.101 644.068 714.281 630.829 703.555 C 622.596 683.748 640.703 654.453 640.928 636.585 C 641.188 615.983 553.664 600.599 552.808 580.065 C 552.444 571.318 578.443 549.207 587.558 540.923 C 588.646 539.655 592.14 536.701 593.555 535.436 C 598.355 531.156 603.55 525.706 608.156 521.109 C 593.797 477.657 573.33 459.627 553.944 422.488 L 552.349 418.159 C 549.835 412.967 549.654 408.451 549.011 402.764 C 550.658 400.14 553.217 397.147 556.618 396.996 C 611.749 394.548 661.561 418.174 706.192 447.601 C 709.609 424.781 715.107 408.108 716.854 383.434 C 715.835 381.32 713.511 378.076 712.135 376.021 C 709.684 372.517 707.448 368.883 705.17 365.265 C 704.029 364.12 700.708 358.909 699.61 357.268 C 698.261 355.334 696.96 353.169 695.697 351.163 C 691.194 343.111 685.1 334.637 680.359 326.445 C 668.604 306.133 658.528 285.271 650.049 263.534 C 631.249 215.336 623.139 167.44 623.767 115.7 C 624.027 102.685 622.141 89.5327 627.744 77.3244 C 634.203 63.2512 648.548 63.5219 659.529 71.9308 C 684.783 91.2684 703.815 118.356 725.777 141.453 C 749.113 165.994 771.857 190.357 797.653 212.472 C 808.06 221.426 821.061 235.241 832.898 241.349 L 834.099 241.959 C 842.864 238.155 853.472 230.994 862.993 226.798 C 884.983 217.104 911.408 205.923 934.411 199.273 C 936.907 193.853 938.191 190.165 940.075 184.473 C 941.648 179.059 942.07 175.072 944.191 168.625 C 946.325 152.883 970.499 101.186 979.365 86.8806 z"/>
<path transform="translate(0,0)" fill="rgb(39,23,41)" d="M 1333.93 742.039 C 1343.73 740.719 1352.24 741.008 1362.02 742.48 L 1382.14 747.566 C 1367.24 755.136 1339.7 750.885 1323.7 748.128 C 1326.72 744.9 1329.72 743.203 1333.93 742.039 z"/>
<path transform="translate(0,0)" fill="rgb(47,23,46)" d="M 1333.93 742.039 C 1343.73 740.719 1352.24 741.008 1362.02 742.48 C 1361.49 743.956 1362.07 744.809 1362.53 746.664 C 1360.44 748.83 1336.64 750.097 1332.42 745.936 L 1333.93 742.039 z"/>
<path transform="translate(0,0)" fill="url(#Gradient9)" d="M 618.576 1143.12 C 607.918 1125.38 611.037 1105.45 620.691 1088.24 C 624.464 1094.63 622.325 1123.62 621.816 1131.99 C 619.661 1135.46 619.309 1139.1 618.576 1143.12 z"/>
<path transform="translate(0,0)" fill="rgb(39,23,41)" d="M 1389.73 269.942 C 1387.11 259.619 1383.54 252.431 1385.74 239.917 C 1387.71 244.254 1388.69 252.809 1390.23 258.449 C 1393.05 257.982 1392.84 257.269 1395.36 254.676 L 1389.73 269.942 z"/>
<path transform="translate(0,0)" fill="rgb(39,23,41)" d="M 940.075 184.473 C 941.648 179.059 942.07 175.072 944.191 168.625 C 943.975 180.381 946.621 187.555 946.057 200.07 C 944.802 196.404 941.998 187.275 940.075 184.473 z"/>
<path transform="translate(0,0)" fill="rgb(47,23,46)" d="M 549.011 402.764 L 554.129 400.659 C 554.041 405.921 554.512 413.683 552.349 418.159 C 549.835 412.967 549.654 408.451 549.011 402.764 z"/>
<path transform="translate(0,0)" fill="rgb(39,23,41)" d="M 554.129 400.659 L 556.461 401.752 C 558.18 408.049 556.674 416.747 553.944 422.488 L 552.349 418.159 C 554.512 413.683 554.041 405.921 554.129 400.659 z"/>
<path transform="translate(0,0)" fill="rgb(39,23,41)" d="M 695.697 351.163 C 698.666 346.894 696.731 342.6 699.151 337.455 C 700.473 342.78 700.105 351.723 699.61 357.268 C 698.261 355.334 696.96 353.169 695.697 351.163 z"/>
<path transform="translate(0,0)" fill="rgb(39,23,41)" d="M 705.17 365.265 L 708.048 367.049 C 709.664 364.939 710.827 362.624 712.958 361.907 C 712.449 366.639 711.749 371.285 712.135 376.021 C 709.684 372.517 707.448 368.883 705.17 365.265 z"/>
<path transform="translate(0,0)" fill="rgb(39,23,41)" d="M 593.555 535.436 C 594.877 537.915 595.715 538.794 596.154 541.617 C 592.637 543.422 591.159 542.523 587.558 540.923 C 588.646 539.655 592.14 536.701 593.555 535.436 z"/>
<path transform="translate(0,0)" fill="rgb(39,23,41)" d="M 589.506 1052.07 L 592.77 1049.09 L 594.33 1049.36 C 595.623 1052.11 595.183 1057.37 595.169 1060.67 C 592.678 1057.38 591.555 1055.59 589.506 1052.07 z"/>
<path transform="translate(0,0)" fill="rgb(39,23,41)" d="M 1584.46 872.567 L 1589.35 877.672 C 1586.34 879.403 1584.58 880.525 1581.42 878.927 C 1581.52 875.436 1582.11 875.74 1584.46 872.567 z"/>
<path transform="translate(0,0)" fill="rgb(39,23,41)" d="M 621.816 1131.99 C 621.795 1136.48 622 1144.03 621.144 1148.17 C 620.207 1146.61 619.384 1144.78 618.576 1143.12 C 619.309 1139.1 619.661 1135.46 621.816 1131.99 z"/>
<path transform="translate(0,0)" fill="rgb(94,172,77)" d="M 728.087 422.887 C 745.201 339.424 799.918 273.887 877.637 238.779 C 895.393 230.758 912.088 224.792 930.447 218.499 C 931.142 227.737 930.23 241.02 931.497 249.194 C 939.71 302.178 968.059 351.329 1007.71 387.048 C 1011.15 390.144 1015.34 392.856 1019.43 394.888 C 1048.29 384.44 1079.24 334.307 1092.25 307.529 C 1102.01 287.441 1108.02 263.084 1110.79 240.962 L 1111.74 218.728 C 1189.79 244.591 1250.63 281.777 1290.63 357.422 C 1304.44 383.536 1315.44 421.551 1317.18 451.165 C 1322.22 468.877 1315.76 517.193 1315.92 537.08 C 1316.05 553.199 1317.81 560.914 1320.44 576.708 C 1328.87 620.34 1320.53 642.816 1300.46 679.529 C 1286.31 712.207 1224.01 750.74 1193.45 765.843 C 1164.03 780.45 1133.32 792.291 1101.7 801.214 C 1028.34 821.529 989.217 816.734 916.12 793.568 C 865.832 777.631 766.593 730.419 741.888 680.265 C 741.583 679.877 741.284 679.484 740.99 679.088 C 719.844 650.454 715.117 617.02 720.413 582.599 C 722.676 567.693 725.415 550.464 725.01 535.432 C 724.081 501.016 718.626 456.611 728.087 422.887 z"/>
<path transform="translate(0,0)" fill="rgb(250,209,91)" d="M 1248.25 654.412 C 1256.77 646.991 1259.13 655.297 1264.91 655.205 L 1266.9 653.069 L 1269.02 656.476 C 1273.98 657.11 1283.89 663.995 1288.6 667.075 L 1288.85 667.528 C 1293.45 671.831 1296.33 674.777 1300.46 679.529 C 1286.31 712.207 1224.01 750.74 1193.45 765.843 C 1164.03 780.45 1133.32 792.291 1101.7 801.214 C 1028.34 821.529 989.217 816.734 916.12 793.568 C 865.832 777.631 766.593 730.419 741.888 680.265 C 745.768 674.472 747.126 672.232 752.175 667.563 L 752.892 667.388 C 753.532 666.727 754.203 666.096 754.902 665.498 C 758.279 662.558 768.469 655.584 772.875 655.889 C 780.538 660.328 792.635 655.05 800.756 652.576 C 810.871 670.085 812.872 677.372 829.058 692.762 C 850.114 712.783 871.528 720.94 900.255 722.802 C 909.165 723.379 920.959 723.192 929.064 726.385 C 964.781 740.458 983.337 761.309 1024.76 759.876 C 1062.15 758.583 1080.73 737.588 1114.06 726.156 C 1121.23 723.694 1130.83 723.092 1138.61 722.637 C 1159.94 721.774 1178.88 717.468 1196.57 705.267 C 1217.05 691.139 1228.27 674.597 1241.07 654.06 C 1242.09 652.414 1246.31 653.96 1248.25 654.412 z"/>
<path transform="translate(0,0)" fill="rgb(252,185,14)" d="M 752.892 667.388 C 760.838 676.635 771.184 688.805 780.853 696.404 C 842.231 744.642 926.248 781.084 1004.17 788.337 C 1078.75 795.28 1161.82 758.433 1225.69 723.051 C 1236.88 716.852 1249.73 703.824 1260.39 696.262 C 1267.8 690.706 1285.12 669.906 1288.85 667.528 C 1293.45 671.831 1296.33 674.777 1300.46 679.529 C 1286.31 712.207 1224.01 750.74 1193.45 765.843 C 1164.03 780.45 1133.32 792.291 1101.7 801.214 C 1028.34 821.529 989.217 816.734 916.12 793.568 C 865.832 777.631 766.593 730.419 741.888 680.265 C 745.768 674.472 747.126 672.232 752.175 667.563 L 752.892 667.388 z"/>
<path transform="translate(0,0)" fill="rgb(73,22,60)" d="M 1248.25 654.412 C 1256.77 646.991 1259.13 655.297 1264.91 655.205 L 1266.9 653.069 L 1269.02 656.476 C 1261.74 659.696 1255.45 656.79 1248.25 654.412 z"/>
<path transform="translate(0,0)" fill="rgb(47,23,46)" d="M 772.875 655.889 C 784.456 634.594 798.791 628.912 821.082 639.147 C 820.1 644.316 819.105 645.896 816.339 650.37 C 836.189 676.313 852.471 698.406 887.986 703.4 C 902.043 705.377 922.194 704.757 934.649 709.364 C 972.785 723.471 994.945 749.705 1040.38 739.353 C 1067.68 733.134 1087.45 713.396 1113.64 707.794 C 1141.71 701.79 1165.83 707.907 1191.2 687.829 C 1205 676.906 1215.43 664.157 1225.25 649.324 C 1221.13 650.484 1217.88 651.917 1213.86 650.925 L 1212.26 649.184 C 1214.88 632.252 1253.98 625.402 1266.9 653.069 L 1264.91 655.205 C 1259.13 655.297 1256.77 646.991 1248.25 654.412 C 1246.31 653.96 1242.09 652.414 1241.07 654.06 C 1228.27 674.597 1217.05 691.139 1196.57 705.267 C 1178.88 717.468 1159.94 721.774 1138.61 722.637 C 1130.83 723.092 1121.23 723.694 1114.06 726.156 C 1080.73 737.588 1062.15 758.583 1024.76 759.876 C 983.337 761.309 964.781 740.458 929.064 726.385 C 920.959 723.192 909.165 723.379 900.255 722.802 C 871.528 720.94 850.114 712.783 829.058 692.762 C 812.872 677.372 810.871 670.085 800.756 652.576 C 792.635 655.05 780.538 660.328 772.875 655.889 z"/>
<path transform="translate(0,0)" fill="rgb(168,204,117)" d="M 1111.74 218.728 C 1189.79 244.591 1250.63 281.777 1290.63 357.422 C 1304.44 383.536 1315.44 421.551 1317.18 451.165 C 1313.52 447.875 1302.47 406.407 1298.96 396.699 C 1296.15 389.03 1292.71 381.606 1288.68 374.502 C 1252.6 311.279 1180.49 259.965 1110.79 240.962 L 1111.74 218.728 z"/>
<path transform="translate(0,0)" fill="rgb(168,204,117)" d="M 728.087 422.887 C 745.201 339.424 799.918 273.887 877.637 238.779 C 895.393 230.758 912.088 224.792 930.447 218.499 C 929.837 226.557 929.908 233.214 929.989 241.279 C 849.986 269.506 783.899 309.465 745.61 389.191 C 742.569 395.523 727.594 432.974 727.849 437.205 C 727.361 434.889 727.194 435.965 728.444 433.888 L 728.236 434.154 C 728.302 430.326 728.466 426.701 728.087 422.887 z"/>
<path transform="translate(0,0)" fill="rgb(53,108,103)" d="M 1320.44 576.708 C 1328.87 620.34 1320.53 642.816 1300.46 679.529 C 1296.33 674.777 1293.45 671.831 1288.85 667.528 L 1288.6 667.075 C 1291.86 661.114 1297.39 655.182 1301.53 647.054 C 1312.24 626.009 1317.22 599.869 1320.44 576.708 z"/>
<path transform="translate(0,0)" fill="url(#Gradient8)" d="M 741.888 680.265 C 741.583 679.877 741.284 679.484 740.99 679.088 C 719.844 650.454 715.117 617.02 720.413 582.599 L 720.802 583.689 C 726.33 599.571 726.794 619.946 734.019 637.467 C 737.813 646.666 751.754 662.72 752.175 667.563 C 747.126 672.232 745.768 674.472 741.888 680.265 z"/>
<path transform="translate(0,0)" fill="rgb(39,41,49)" d="M 821.082 639.147 C 825.457 642.797 829.529 645.198 830.063 650.726 C 826.111 654.209 821.167 651.692 816.339 650.37 C 819.105 645.896 820.1 644.316 821.082 639.147 z"/>
<path transform="translate(0,0)" fill="rgb(47,23,46)" d="M 755.835 521.299 C 754.941 517.05 753.135 512.591 752.273 508.453 C 749.151 493.467 750.55 476.466 753.063 461.408 C 757.831 433.69 773.402 408.997 796.358 392.747 C 855.49 351.136 910.615 411.85 920.779 467.704 C 923.915 484.937 928.152 501.766 925.007 519.487 C 925.181 533.346 925.737 552.656 922.599 566.011 C 921.64 571.954 920.899 573.768 918.642 579.425 L 914.693 585.46 C 908.82 589.614 904.243 590.891 897.222 592.454 C 885.7 596.222 859.976 600.372 848.187 597.552 C 843.269 597.277 838.097 596.255 833.219 595.414 C 817.385 590.771 803.124 585.524 789.332 576.336 C 766.106 560.863 761.022 547.141 755.835 521.299 z"/>
<path transform="translate(0,0)" fill="rgb(73,22,60)" d="M 847.07 426.164 C 861.337 429.361 869.025 436.896 878.883 447.585 C 867.577 449.456 859.455 449.267 850.906 456.375 C 863.153 472.416 859.789 492.094 839.661 498.346 C 830.274 501.699 835.584 510.33 835.037 519.425 C 838.706 536.541 846.96 574.579 873.674 569.743 C 876.77 569.183 881.495 567.178 883.875 565.092 C 892.329 567.988 894.993 567.474 901.782 562.306 C 903.716 553.869 901.782 550.923 895.711 545.664 C 897.216 539.831 902.512 516.364 905.616 514.047 C 910.648 518.959 910.619 551.335 911.343 560.084 C 911.906 566.884 910.864 572.568 907.503 578.533 C 909.967 581.233 911.678 583.305 914.693 585.46 C 908.82 589.614 904.243 590.891 897.222 592.454 C 885.7 596.222 859.976 600.372 848.187 597.552 C 843.269 597.277 838.097 596.255 833.219 595.414 L 834.913 592.775 L 834.74 591.902 C 834.464 589.995 826.907 583.945 824.751 581.819 C 818.712 575.977 813.604 569.244 809.607 561.854 C 794.973 534.711 794.712 502.885 803.438 473.91 C 813.977 449.806 822.907 437.112 847.07 426.164 z"/>
<path transform="translate(0,0)" fill="rgb(208,82,142)" d="M 901.782 562.306 C 901.648 589.986 877.119 595.511 854.207 589.183 C 822.999 580.564 795.62 539.197 835.037 519.425 C 838.706 536.541 846.96 574.579 873.674 569.743 C 876.77 569.183 881.495 567.178 883.875 565.092 C 892.329 567.988 894.993 567.474 901.782 562.306 z"/>
<path transform="translate(0,0)" fill="rgb(251,251,251)" d="M 839.661 498.346 C 799.382 497.478 816.232 433.471 850.906 456.375 C 863.153 472.416 859.789 492.094 839.661 498.346 z"/>
<path transform="translate(0,0)" fill="rgb(39,41,49)" d="M 907.503 578.533 C 909.967 581.233 911.678 583.305 914.693 585.46 C 908.82 589.614 904.243 590.891 897.222 592.454 L 896.767 591.657 C 899.058 588.081 904.564 581.983 907.503 578.533 z"/>
<path transform="translate(0,0)" fill="rgb(39,23,41)" d="M 834.913 592.775 C 838.715 593.424 848.182 594.38 850.44 596.71 L 848.187 597.552 C 843.269 597.277 838.097 596.255 833.219 595.414 L 834.913 592.775 z"/>
<path transform="translate(0,0)" fill="rgb(53,108,103)" d="M 755.835 521.299 C 754.941 517.05 753.135 512.591 752.273 508.453 C 749.151 493.467 750.55 476.466 753.063 461.408 C 757.831 433.69 773.402 408.997 796.358 392.747 C 855.49 351.136 910.615 411.85 920.779 467.704 C 923.915 484.937 928.152 501.766 925.007 519.487 C 923.344 514.833 920.106 496.671 918.531 490.027 C 906.741 444.216 872.603 393.948 819.043 408.093 C 767.134 421.801 756.183 476.058 755.835 521.299 z"/>
<path transform="translate(0,0)" fill="rgb(251,251,251)" d="M 772.822 509.356 C 781.954 498.109 787.805 478.737 803.438 473.91 C 794.712 502.885 794.973 534.711 809.607 561.854 C 813.604 569.244 818.712 575.977 824.751 581.819 C 826.907 583.945 834.464 589.995 834.74 591.902 C 819.824 589.474 799.201 576.978 789.096 565.741 C 774.803 549.846 771.804 529.927 772.822 509.356 z"/>
<path transform="translate(0,0)" fill="rgb(201,166,214)" d="M 772.822 509.356 C 773.108 485.235 781.776 456.895 800.131 440.078 C 815.373 426.114 827.597 425.397 847.07 426.164 C 822.907 437.112 813.977 449.806 803.438 473.91 C 787.805 478.737 781.954 498.109 772.822 509.356 z"/>
<path transform="translate(0,0)" fill="rgb(248,245,247)" d="M 883.875 565.092 C 877.994 554.525 882.817 543.978 895.711 545.664 C 901.782 550.923 903.716 553.869 901.782 562.306 C 894.993 567.474 892.329 567.988 883.875 565.092 z"/>
<path transform="translate(0,0)" fill="rgb(22,19,33)" d="M 918.531 490.027 C 920.106 496.671 923.344 514.833 925.007 519.487 C 925.181 533.346 925.737 552.656 922.599 566.011 C 919.343 563.742 920.055 552.167 919.826 547.759 C 919.913 532.22 920.427 516.758 917.784 501.376 C 916.97 496.639 916.491 494.275 918.531 490.027 z"/>
<path transform="translate(0,0)" fill="rgb(39,23,41)" d="M 919.826 547.759 C 920.055 552.167 919.343 563.742 922.599 566.011 C 921.64 571.954 920.899 573.768 918.642 579.425 C 917.448 574.261 919.402 554.199 919.826 547.759 z"/>
<path transform="translate(0,0)" fill="rgb(47,23,46)" d="M 1117.17 514.458 C 1115.96 476.161 1122.19 434.48 1150.18 406.886 C 1230.96 327.259 1312.46 438.137 1285.08 521.266 C 1277.58 551.006 1275.03 562.83 1246.8 580.149 C 1216.02 599.034 1184.25 602.2 1149.49 594.099 C 1144.08 592.837 1136.38 590.343 1131.62 587.679 C 1112.99 582.464 1116.32 529.454 1117.17 514.458 z"/>
<path transform="translate(0,0)" fill="rgb(47,23,46)" d="M 1240.35 416.212 C 1278.87 434.668 1283.74 484.138 1285.08 521.266 C 1277.58 551.006 1275.03 562.83 1246.8 580.149 C 1216.02 599.034 1184.25 602.2 1149.49 594.099 C 1144.08 592.837 1136.38 590.343 1131.62 587.679 C 1137.38 587.442 1139.74 589.957 1145.71 590.115 C 1149.69 590.884 1151.83 590.14 1155.49 588.962 C 1167.49 592.15 1173.44 592.041 1185.81 590.134 C 1197.21 591.555 1191.3 594.842 1204.14 592.925 C 1205.25 589.584 1217.03 581.305 1220.37 577.326 C 1244.16 548.996 1247.95 507.997 1237.58 473.097 C 1236.08 470.451 1233.75 464.55 1232.03 461.351 C 1221.49 441.771 1213.15 434.523 1193.33 426.398 C 1210.07 425.283 1214.18 425.339 1229.79 431.589 L 1230.66 430.876 C 1240.7 435.415 1241.71 425.837 1248.36 424.914 C 1248.39 422.188 1242.62 420.825 1240.35 416.212 z"/>
<path transform="translate(0,0)" fill="rgb(251,251,251)" d="M 1237.58 473.097 C 1249.03 475.169 1260.45 500.756 1266.8 508.236 C 1266.88 514.268 1266.72 522.499 1267.11 528.347 C 1265.35 560.634 1234.43 587.7 1204.14 592.925 C 1205.25 589.584 1217.03 581.305 1220.37 577.326 C 1244.16 548.996 1247.95 507.997 1237.58 473.097 z"/>
<path transform="translate(0,0)" fill="rgb(201,166,214)" d="M 1193.33 426.398 C 1210.07 425.283 1214.18 425.339 1229.79 431.589 C 1253.2 448.969 1260.9 464.019 1266.56 493.655 C 1267.99 501.102 1268.69 521.392 1267.11 528.347 C 1266.72 522.499 1266.88 514.268 1266.8 508.236 C 1260.45 500.756 1249.03 475.169 1237.58 473.097 C 1236.08 470.451 1233.75 464.55 1232.03 461.351 C 1221.49 441.771 1213.15 434.523 1193.33 426.398 z"/>
<path transform="translate(0,0)" fill="rgb(53,108,103)" d="M 1117.17 514.458 C 1115.96 476.161 1122.19 434.48 1150.18 406.886 C 1230.96 327.259 1312.46 438.137 1285.08 521.266 C 1283.74 484.138 1278.87 434.668 1240.35 416.212 C 1224.59 406.555 1208.57 403.656 1190.62 408.188 C 1142.5 420.335 1124.04 470.825 1117.17 514.458 z"/>
<path transform="translate(0,0)" fill="rgb(208,82,142)" d="M 1205.54 519.128 C 1244.14 542.96 1218.01 577.585 1185.81 590.134 C 1173.44 592.041 1167.49 592.15 1155.49 588.962 C 1151.83 590.14 1149.69 590.884 1145.71 590.115 L 1137.19 580.114 C 1133.71 571.927 1136.99 565.585 1137.98 555.667 C 1140.12 551.256 1142.04 549.52 1145.37 545.95 C 1156.48 545.667 1162.18 552.529 1158.48 563.337 C 1162.26 567.284 1167.41 571.418 1172.95 570.57 C 1195.4 567.13 1202.38 534.918 1205.54 519.128 z"/>
<path transform="translate(0,0)" fill="rgb(248,245,247)" d="M 1145.37 545.95 C 1156.48 545.667 1162.18 552.529 1158.48 563.337 C 1150.43 568.399 1147.84 568.759 1139.66 563.667 L 1137.98 555.667 C 1140.12 551.256 1142.04 549.52 1145.37 545.95 z"/>
<path transform="translate(0,0)" fill="rgb(94,22,66)" d="M 1137.19 580.114 C 1133.71 571.927 1136.99 565.585 1137.98 555.667 L 1139.66 563.667 C 1138.76 575.373 1145.95 583.334 1155.49 588.962 C 1151.83 590.14 1149.69 590.884 1145.71 590.115 L 1137.19 580.114 z"/>
<path transform="translate(0,0)" fill="rgb(73,22,60)" d="M 1137.31 498.294 C 1138.67 510.928 1138.13 536.009 1145.37 545.95 C 1142.04 549.52 1140.12 551.256 1137.98 555.667 C 1136.99 565.585 1133.71 571.927 1137.19 580.114 C 1134.09 577.78 1131.85 575.687 1131.52 571.706 C 1129.61 548.827 1131.89 520.247 1137.31 498.294 z"/>
<path transform="translate(0,0)" fill="rgb(251,251,251)" d="M 1199.24 451.014 C 1227.65 450.181 1234.76 488.49 1206.59 498.056 C 1197.27 498.228 1189.48 494.881 1185.19 486.196 C 1182.22 480.113 1181.78 473.102 1183.96 466.696 C 1186.76 458.518 1191.79 454.566 1199.24 451.014 z"/>
<path transform="translate(0,0)" fill="rgb(168,204,117)" d="M 992.733 557.622 C 1025.66 560.049 1054.69 553.556 1080.97 582.44 C 1082.95 584.611 1083.78 585.776 1084.76 588.595 C 1088.24 591.072 1091.76 592.761 1092.18 597.212 C 1086.93 599.816 1062.65 590.801 1054.96 589.472 C 1014.47 582.475 981.615 589.636 942.706 600.857 C 946.358 596.769 951.73 592.3 955.925 588.598 C 957.217 578.319 983.684 564.53 992.733 557.622 z"/>
<path transform="translate(0,0)" fill="rgb(60,107,74)" d="M 992.733 557.622 C 1025.66 560.049 1054.69 553.556 1080.97 582.44 C 1082.95 584.611 1083.78 585.776 1084.76 588.595 C 1070.33 580.835 1067.07 578.183 1051.28 574.759 C 1030.66 571.209 1006.07 569.74 985.851 576.068 C 974.008 578.495 966.34 582.734 955.925 588.598 C 957.217 578.319 983.684 564.53 992.733 557.622 z"/>
<path transform="translate(0,0)" fill="rgb(143,191,112)" d="M 985.851 576.068 C 1006.07 569.74 1030.66 571.209 1051.28 574.759 C 1039.26 581.193 1003.92 578.483 989.013 577.57 C 988.072 577.512 986.661 576.576 985.851 576.068 z"/>
<path transform="translate(0,0)" fill="rgb(39,23,41)" d="M 931.346 645.904 C 930.278 642.647 929.821 639.816 931.519 636.592 C 949.805 601.859 986.456 667.187 970.221 670.645 L 966.885 668.832 C 952.835 665.208 939.879 657.831 931.346 645.904 z"/>
<path transform="translate(0,0)" fill="rgb(53,108,103)" d="M 931.346 645.904 C 936.518 646.321 941.688 646.783 946.853 647.287 C 953.883 651.606 962.427 661.74 966.885 668.832 C 952.835 665.208 939.879 657.831 931.346 645.904 z"/>
<path transform="translate(0,0)" fill="rgb(39,23,41)" d="M 1073.21 644.357 C 1094.94 612.431 1120.88 633.026 1106.11 649.55 C 1094.87 660.819 1089.16 663.67 1074.09 668.55 C 1071.41 669.668 1071.55 669.722 1068.71 669.525 C 1063.2 663.358 1069.66 650.471 1073.21 644.357 z"/>
<path transform="translate(0,0)" fill="rgb(39,41,49)" d="M 1073.21 644.357 C 1079.69 645.085 1083.16 646.885 1087.72 651.604 C 1094.67 646.804 1098.35 645.853 1106.11 649.55 C 1094.87 660.819 1089.16 663.67 1074.09 668.55 C 1071.41 669.668 1071.55 669.722 1068.71 669.525 C 1063.2 663.358 1069.66 650.471 1073.21 644.357 z"/>
<path transform="translate(0,0)" fill="rgb(53,108,103)" d="M 1087.72 651.604 C 1094.67 646.804 1098.35 645.853 1106.11 649.55 C 1094.87 660.819 1089.16 663.67 1074.09 668.55 C 1078.14 662.338 1082.65 656.999 1087.72 651.604 z"/>
<path transform="translate(0,0)" fill="rgb(168,204,117)" d="M 1010.5 597.4 C 1018.01 597.192 1032.55 597.39 1036.71 604.723 L 1035.9 606.906 C 1030.99 610.865 1024.66 611.736 1018.57 612.526 C 1017.75 612.597 1016.93 612.662 1016.1 612.72 C 1008.27 613.272 1000.65 613.579 994.476 608.202 C 993.212 604.863 993.191 606.285 994.629 602.892 C 999.378 598.571 1004.27 598.348 1010.5 597.4 z"/>
<path transform="translate(0,0)" fill="url(#Gradient7)" d="M 691.599 1026.29 C 690.428 1025.68 686.698 1024.19 686.743 1022.64 C 687.808 985.841 678.466 930.441 727.391 920.251 C 747.136 916.138 782.163 918.121 803.528 918.161 L 934.1 918.193 L 1179.45 918.182 L 1254.27 918.178 C 1291.89 918.083 1341.91 910.717 1352.5 958.909 C 1356.11 975.338 1353.91 1006.93 1353.4 1024.41 C 1353.38 1025.05 1349.16 1026.78 1348.33 1027.17 C 1335.56 1030.53 1302.24 1051.35 1306.55 1068.3 C 1308.68 1076.65 1318.87 1082.5 1325.95 1086.68 C 1300.77 1110.36 1285.27 1116.03 1320.44 1143.35 L 1329.27 1149.21 C 1325.4 1151.49 1320.95 1153.97 1317.2 1156.35 C 1302.81 1169.55 1308.07 1179.44 1320.13 1192.15 C 1325.95 1198.28 1340.75 1207.88 1349.19 1210.08 C 1352.08 1211.11 1353.17 1211.16 1354.84 1213.52 C 1355.53 1223.14 1354.4 1233.49 1354.57 1243.16 C 1354.94 1264.74 1349.83 1287.58 1328.65 1298.33 C 1322.23 1301.57 1315.21 1303.46 1308.03 1303.86 C 1281.2 1305.29 1245.62 1304.33 1218.22 1304.32 L 1055.03 1304.27 L 859.014 1304.28 C 834.093 1304.28 735.482 1307.06 718.293 1300.88 C 707.465 1296.98 697.945 1286.32 693.186 1276.12 C 687.438 1263.81 683.459 1223.99 687.99 1211.87 L 690.952 1210.92 C 711.552 1202.07 722.114 1197.03 732.403 1176.19 L 727.297 1172.19 C 728.487 1167.62 727.612 1161.86 727.265 1157 C 726.018 1155.65 717.397 1150.34 715.284 1148.99 C 731.475 1132.66 758.647 1122.17 730.794 1098.68 C 727.099 1095.1 721.336 1090.74 717.203 1087.43 C 725.116 1082.68 729.967 1080.24 733.828 1070.89 C 741.259 1052.9 706.17 1026.44 691.599 1026.29 z"/>
<path transform="translate(0,0)" fill="url(#Gradient6)" d="M 691.599 1026.29 C 690.428 1025.68 686.698 1024.19 686.743 1022.64 C 687.808 985.841 678.466 930.441 727.391 920.251 C 747.136 916.138 782.163 918.121 803.528 918.161 L 934.1 918.193 L 1179.45 918.182 L 1254.27 918.178 C 1291.89 918.083 1341.91 910.717 1352.5 958.909 C 1356.11 975.338 1353.91 1006.93 1353.4 1024.41 C 1353.38 1025.05 1349.16 1026.78 1348.33 1027.17 C 1346.01 1002.67 1354.19 969.061 1341.05 946.978 C 1327.79 924.705 1299.32 925.156 1276.63 925.077 C 1261.88 925.026 1246.83 924.927 1231.91 924.93 L 1097.35 925.025 L 871.533 925.013 C 830.621 924.983 789.005 924.518 748.139 925.503 C 736.483 926.199 723.684 926.91 713.63 933.305 C 680.847 954.159 698.965 997.393 691.599 1026.29 z"/>
<path transform="translate(0,0)" fill="rgb(86,137,144)" d="M 1349.19 1210.08 C 1352.08 1211.11 1353.17 1211.16 1354.84 1213.52 C 1355.53 1223.14 1354.4 1233.49 1354.57 1243.16 C 1354.94 1264.74 1349.83 1287.58 1328.65 1298.33 C 1322.23 1301.57 1315.21 1303.46 1308.03 1303.86 C 1281.2 1305.29 1245.62 1304.33 1218.22 1304.32 L 1055.03 1304.27 L 859.014 1304.28 C 834.093 1304.28 735.482 1307.06 718.293 1300.88 C 707.465 1296.98 697.945 1286.32 693.186 1276.12 C 687.438 1263.81 683.459 1223.99 687.99 1211.87 L 690.952 1210.92 C 699.541 1221.73 671.84 1292.46 736.964 1298.19 C 752.417 1299.55 775.912 1298.09 792.004 1298.04 L 924.146 1297.6 L 1184.43 1297.93 L 1259.42 1297.86 C 1296.6 1297.86 1341.92 1305.28 1348.23 1254.82 C 1349.53 1244.4 1346.37 1217.41 1349.19 1210.08 z"/>
<path transform="translate(0,0)" fill="rgb(22,19,33)" d="M 727.265 1157 C 734.61 1163.93 734.321 1166.57 732.403 1176.19 L 727.297 1172.19 C 728.487 1167.62 727.612 1161.86 727.265 1157 z"/>
<path transform="translate(0,0)" fill="rgb(86,137,144)" d="M 1320.44 1143.35 L 1329.27 1149.21 C 1325.4 1151.49 1320.95 1153.97 1317.2 1156.35 C 1318.61 1150.5 1317.74 1149.14 1320.44 1143.35 z"/>
<path transform="translate(0,0)" fill="rgb(39,41,49)" d="M 765.1 936.307 C 782.364 935.224 809.926 935.988 827.932 935.978 L 947.131 935.939 C 1053.85 935.924 1160.64 936.249 1267.35 935.805 C 1271.49 936.089 1277.09 935.61 1280.95 937.08 C 1293.54 941.867 1296.09 951.074 1296.22 963.468 C 1296.75 1012.78 1295.87 1062.06 1296.11 1111.37 L 1297 1215.12 C 1297.05 1230.3 1297.28 1245.63 1296.9 1260.8 C 1296.57 1274.01 1292.78 1285.47 1279.41 1289.97 C 1262.62 1291.07 1238.87 1290.2 1221.37 1290.15 L 1112.69 1290.09 C 999.372 1290.76 886.046 1290.81 772.723 1290.24 C 750.803 1289.96 746.56 1279.46 746.12 1258.93 C 745.569 1233.25 745.86 1207.51 745.978 1181.82 L 746.152 1084.42 C 746.156 1043.84 745.758 1003.25 745.994 962.662 C 746.081 947.667 750.534 940.351 765.1 936.307 z"/>
<path transform="translate(0,0)" fill="rgb(251,251,251)" d="M 949.96 944.077 C 946.314 943.911 943.48 943.68 939.871 943.285 L 939.456 942.747 C 950.893 938.884 977.511 941.894 989.061 944.77 C 989.484 947.375 989.725 946.166 988.084 948.462 L 991.036 950.135 C 991.709 945.579 990.859 946.622 993.591 943.997 L 996.127 945.191 L 1005.72 944.953 C 1012.11 945.509 1018.75 946.477 1025 945.203 C 1085.87 945.488 1146.76 945.411 1207.63 944.971 L 1220.93 944.711 L 1222.16 944.914 L 1233.74 944.889 C 1292.33 945.618 1287.51 937.595 1286.91 997.645 L 1071.08 997.923 L 1007.48 997.925 C 998.07 997.908 982.244 997.393 973.218 998.062 C 968.729 999.226 964.712 999.016 960.134 999.138 C 938.431 999.72 916.756 998.954 895.049 999.244 C 887.002 999.351 879.639 998.505 871.509 999.232 L 871.731 1000.43 L 872.327 1000.73 C 874.504 1001.84 874.787 1001.93 876.524 1003.57 L 876.025 1004.96 C 873.44 1003.19 872.717 1002.38 869.723 1001.92 L 868.92 1003.73 L 867.582 1006.84 C 863.343 1008.35 861.451 1006.9 856.654 1007.3 C 854.333 1008.51 854.261 1008.31 851.731 1008.05 C 850.822 1006.85 849.892 1005.65 848.94 1004.48 C 848.041 1005.78 847.918 1005.81 846.691 1006.83 L 843.064 1005.14 L 842.228 1005.38 L 842.104 1003.78 C 835.062 997.362 828.815 998.911 819.174 999.36 L 818.444 999.395 C 818.965 1001.51 819.985 1002.37 821.404 1004.02 L 821.53 1006.56 C 818.854 1008.14 820.266 1007.82 817.139 1007.53 L 811.501 1007.77 C 807.904 1007.98 791.073 1009.83 788.55 1007.19 C 787.773 1006.38 789.055 1004.74 786.087 1002.3 C 781.087 1004.22 784.306 1006.46 780.315 1007.67 L 779.695 1005.53 L 778.614 1004.99 C 777.258 1007.51 778.197 1006.96 776.213 1007.75 C 775.486 1005.06 776.323 1000.67 776.675 997.738 L 755.275 997.82 C 755.119 989.032 753.058 952.725 759.048 949.554 C 771.942 942.728 813.864 945.051 828.223 945.075 C 864.756 945.326 901.291 945.249 937.822 944.843 L 942.841 945.132 L 945.497 945.847 L 947.898 951.882 L 949.271 949.905 C 949.141 947.008 949.048 946.767 949.96 944.077 z"/>
<path transform="translate(0,0)" fill="rgb(65,66,73)" d="M 776.675 997.738 L 840.1 997.898 L 842.104 1003.78 C 835.062 997.362 828.815 998.911 819.174 999.36 L 818.444 999.395 C 818.965 1001.51 819.985 1002.37 821.404 1004.02 L 821.53 1006.56 C 818.854 1008.14 820.266 1007.82 817.139 1007.53 L 811.501 1007.77 C 807.904 1007.98 791.073 1009.83 788.55 1007.19 C 787.773 1006.38 789.055 1004.74 786.087 1002.3 C 781.087 1004.22 784.306 1006.46 780.315 1007.67 L 779.695 1005.53 L 778.614 1004.99 C 777.258 1007.51 778.197 1006.96 776.213 1007.75 C 775.486 1005.06 776.323 1000.67 776.675 997.738 z"/>
<path transform="translate(0,0)" fill="rgb(83,80,86)" d="M 811.501 1007.77 C 806.501 1006.54 795.507 1008.75 793.315 1005.46 L 795.026 1003.92 C 801.475 1004.3 809.462 1002.25 815.509 1003.36 C 816.481 1003.54 816.777 1006.14 817.139 1007.53 L 811.501 1007.77 z"/>
<path transform="translate(0,0)" fill="rgb(65,66,73)" d="M 842.627 997.994 L 928.786 997.884 C 941.977 997.889 960.35 997.332 973.218 998.062 C 968.729 999.226 964.712 999.016 960.134 999.138 C 938.431 999.72 916.756 998.954 895.049 999.244 C 887.002 999.351 879.639 998.505 871.509 999.232 L 871.731 1000.43 L 872.327 1000.73 C 874.504 1001.84 874.787 1001.93 876.524 1003.57 L 876.025 1004.96 C 873.44 1003.19 872.717 1002.38 869.723 1001.92 L 868.92 1003.73 L 867.582 1006.84 C 863.343 1008.35 861.451 1006.9 856.654 1007.3 C 854.333 1008.51 854.261 1008.31 851.731 1008.05 C 850.822 1006.85 849.892 1005.65 848.94 1004.48 C 848.041 1005.78 847.918 1005.81 846.691 1006.83 L 843.064 1005.14 L 842.228 1005.38 L 842.104 1003.78 L 840.1 997.898 L 842.627 997.994 z"/>
<path transform="translate(0,0)" fill="rgb(83,80,86)" d="M 856.654 1007.3 L 855.151 1005.89 L 855.963 1004.7 C 860.183 1003.26 864.438 1003.66 868.92 1003.73 L 867.582 1006.84 C 863.343 1008.35 861.451 1006.9 856.654 1007.3 z"/>
<path transform="translate(0,0)" fill="rgb(83,80,86)" d="M 840.1 997.898 L 842.627 997.994 L 842.914 998.537 C 844.084 1000.71 844.19 1000.9 845.869 1002.65 L 843.064 1005.14 L 842.228 1005.38 L 842.104 1003.78 L 840.1 997.898 z"/>
<path transform="translate(0,0)" fill="rgb(22,19,33)" d="M 949.96 944.077 C 946.314 943.911 943.48 943.68 939.871 943.285 L 939.456 942.747 C 950.893 938.884 977.511 941.894 989.061 944.77 C 989.484 947.375 989.725 946.166 988.084 948.462 C 984.013 950.779 983.789 950.97 979.271 948.986 C 978.218 949.655 977.27 946.32 973.413 946.668 C 970.531 944.631 969.573 944.853 965.886 944.532 L 960.979 945.08 C 959.033 946.147 959.577 947.21 957.239 948.93 C 955.582 944.419 954.128 944.873 949.96 944.077 z"/>
<path transform="translate(0,0)" fill="rgb(248,245,247)" d="M 989.061 944.77 C 989.484 947.375 989.725 946.166 988.084 948.462 C 984.013 950.779 983.789 950.97 979.271 948.986 L 980.121 946.398 C 983.023 944.399 985.026 944.992 989.061 944.77 z"/>
<path transform="translate(0,0)" fill="rgb(122,147,101)" d="M 949.96 944.077 C 954.128 944.873 955.582 944.419 957.239 948.93 C 959.577 947.21 959.033 946.147 960.979 945.08 C 962.238 949.551 961.213 951.774 962.131 954.966 C 952.652 961.594 951.79 958.95 942.052 955.317 L 944.753 952.097 L 947.898 951.882 L 949.271 949.905 C 949.141 947.008 949.048 946.767 949.96 944.077 z"/>
<path transform="translate(0,0)" fill="rgb(248,245,247)" d="M 1005.72 944.953 C 1012.11 945.509 1018.75 946.477 1025 945.203 C 1023.17 950.036 1021.51 953.934 1016.04 955.046 C 1012.26 953.589 1011.81 953.079 1008.84 950.275 C 1008.03 947.518 1007.81 946.924 1005.72 944.953 z"/>
<path transform="translate(0,0)" fill="rgb(60,107,74)" d="M 937.822 944.843 L 942.841 945.132 L 945.497 945.847 L 947.898 951.882 L 944.753 952.097 L 942.052 955.317 C 938.373 952.795 938.215 948.861 937.822 944.843 z"/>
<path transform="translate(0,0)" fill="rgb(121,141,110)" d="M 942.841 945.132 L 945.497 945.847 L 947.898 951.882 L 944.753 952.097 C 943.318 949.198 942.388 948.148 942.841 945.132 z"/>
<path transform="translate(0,0)" fill="rgb(149,148,151)" d="M 1207.63 944.971 L 1220.93 944.711 C 1219.62 949.502 1217.9 952.168 1212.74 951.598 C 1209.52 949.785 1209.16 948.32 1207.63 944.971 z"/>
<path transform="translate(0,0)" fill="rgb(184,184,189)" d="M 1222.16 944.914 L 1233.74 944.889 C 1233.37 946.486 1233.06 947.228 1232.51 948.742 C 1226.73 951.45 1224.24 950.771 1222.16 944.914 z"/>
<path transform="translate(0,0)" fill="rgb(60,107,74)" d="M 960.979 945.08 L 965.886 944.532 C 966.583 948.005 967.304 949.65 965.966 952.873 C 964.586 954.038 963.901 954.927 962.131 954.966 C 961.213 951.774 962.238 949.551 960.979 945.08 z"/>
<path transform="translate(0,0)" fill="rgb(83,80,86)" d="M 993.591 943.997 L 996.127 945.191 C 997.711 949.356 997.634 947.612 996.568 951.774 L 995.41 952.535 L 995.19 951.645 L 991.036 950.135 C 991.709 945.579 990.859 946.622 993.591 943.997 z"/>
<path transform="translate(0,0)" fill="rgb(248,245,247)" d="M 993.591 943.997 C 994.155 946.268 995.06 949.383 995.19 951.645 L 991.036 950.135 C 991.709 945.579 990.859 946.622 993.591 943.997 z"/>
<path transform="translate(0,0)" fill="rgb(94,172,77)" d="M 937.641 971.107 C 952.431 969.938 983.817 970.791 999.522 970.833 C 1034.56 970.927 1071.06 970.246 1105.95 971.093 C 1106.38 978.297 1106.46 981.49 1105.74 988.637 C 1090.04 989.523 946.864 990.401 938.243 987.634 C 935.824 983.074 937.058 976.248 937.641 971.107 z"/>
<path transform="translate(0,0)" fill="rgb(122,231,149)" d="M 1018.8 976.16 C 1027.9 979.038 1035.67 973.954 1039.01 983.016 C 1032.51 982.953 1023.7 985.498 1018.88 982.369 C 1017.46 979.124 1017.84 980.307 1018.8 976.16 z"/>
<path transform="translate(0,0)" fill="rgb(184,184,189)" d="M 1178.77 974.934 C 1183.16 974.848 1185.78 974.111 1188.28 978.234 C 1187.94 981.894 1186.87 982.747 1184.48 985.514 C 1180.12 984.24 1179.58 984.121 1177.04 981.075 C 1176.81 977.859 1176.96 977.76 1178.77 974.934 z"/>
<path transform="translate(0,0)" fill="rgb(248,245,247)" d="M 1180.01 976.562 L 1184.65 977.344 C 1186.32 979.609 1185.77 978.934 1185.2 982.771 C 1181.6 981.989 1180.66 982.486 1178.83 980.08 L 1180.01 976.562 z"/>
<path transform="translate(0,0)" fill="rgb(184,184,189)" d="M 1196.07 976.488 L 1198.63 978.857 C 1202.32 979.005 1212.86 979.9 1215.85 978.702 L 1217.33 981.626 C 1213.18 983.882 1197.4 985.011 1194.42 980.207 L 1196.07 976.488 z"/>
<path transform="translate(0,0)" fill="rgb(184,184,189)" d="M 828.247 976.13 C 832.496 975.679 835.914 974.517 838.506 978.472 C 837.786 982.265 837.335 983.529 833.338 983.601 L 833.309 981.714 C 832.388 979.741 832.544 979.693 830.811 978.446 L 828.44 982.495 L 827.743 982.379 C 827.518 980.462 827.983 978.093 828.247 976.13 z"/>
<path transform="translate(0,0)" fill="rgb(184,184,189)" d="M 861.277 978.576 C 864.598 979.162 863.83 977.859 867.983 979.781 L 867.586 981.284 L 864.785 982.461 C 861.46 982.974 858.185 983.978 855.91 981.094 C 857.748 978.607 857.257 979.398 861.277 978.576 z"/>
<path transform="translate(0,0)" fill="rgb(184,184,189)" d="M 842.365 978.299 L 843.578 978.292 L 845.441 983.778 C 843.765 983.329 843.599 983.025 842.173 981.99 L 842.365 978.299 z"/>
<path transform="translate(0,0)" fill="rgb(251,251,251)" d="M 755.363 1248.38 L 1286.74 1248.2 C 1287.07 1267.02 1291.08 1281.11 1267.63 1281.29 C 1241.08 1281.5 1214.54 1281.32 1187.99 1281.31 L 1025.36 1281.33 L 1016.59 1281.34 L 852.638 1281.37 C 826.091 1281.4 799.546 1281.46 773.001 1281.36 C 751.271 1281.28 755.226 1265.42 755.363 1248.38 z"/>
<path transform="translate(0,0)" fill="rgb(248,245,247)" d="M 1016.59 1281.34 C 1018.02 1277.98 1018.15 1276.77 1021.22 1275.08 L 1023.34 1274.88 C 1025.57 1276.94 1025.81 1278.12 1025.36 1281.33 L 1016.59 1281.34 z"/>
<path transform="translate(0,0)" fill="rgb(94,172,77)" d="M 1226.07 1257.13 C 1241.87 1256.63 1263.95 1256.65 1279.64 1257.37 C 1279.97 1262.2 1280.75 1270.29 1278.76 1274.52 C 1263.46 1275.62 1241.68 1274.95 1226.14 1274.57 C 1225.71 1268.82 1224.9 1262.72 1226.07 1257.13 z"/>
<path transform="translate(0,0)" fill="rgb(122,231,149)" d="M 1231.25 1263.04 C 1238.15 1263.15 1250.38 1264.65 1257.86 1264.55 C 1258.69 1265.3 1259.41 1265.95 1260.01 1266.49 C 1252.74 1267.12 1241.3 1268.96 1234.18 1267.34 C 1232.41 1266.95 1232.04 1264.89 1231.25 1263.04 z"/>
<path transform="translate(0,0)" fill="rgb(248,245,247)" d="M 952.747 1261.6 C 954.394 1263.18 953.933 1263.13 954.576 1265.8 L 953.318 1267.44 L 950.134 1266.75 L 948.391 1267.46 L 947.705 1265.57 C 949.448 1262.09 948.27 1263.23 952.747 1261.6 z"/>
<path transform="translate(0,0)" fill="rgb(184,184,189)" d="M 856.935 1261.57 C 860.301 1263.12 862.298 1264.01 864.317 1267 L 863.604 1267.81 L 860.97 1267.37 L 860.075 1266.96 L 859.8 1267.73 L 857.871 1268.09 C 856.293 1265.25 856.879 1265.37 856.935 1261.57 z"/>
<path transform="translate(0,0)" fill="rgb(149,148,151)" d="M 896.609 1264.21 C 902.486 1265.77 903.291 1263.8 906.572 1266.74 C 902.696 1267.59 899.68 1268.73 896.502 1266.96 L 896.609 1264.21 z"/>
<path transform="translate(0,0)" fill="rgb(149,148,151)" d="M 876.75 1264.99 L 875.776 1266.62 C 872.244 1266.67 870.32 1267.02 866.889 1267.57 L 865.7 1266.83 L 866.165 1265.62 C 869.938 1264.35 872.765 1264.8 876.75 1264.99 z"/>
<path transform="translate(0,0)" fill="rgb(83,80,86)" d="M 777.061 1264.59 L 778.242 1264.22 L 779.132 1264.9 L 777.772 1267.64 L 776.543 1267.33 L 777.061 1264.59 z"/>
<path transform="translate(0,0)" fill="rgb(94,172,77)" d="M 765.018 1219.46 C 800.974 1219.86 843.049 1218.44 877.928 1220.01 C 878.18 1225.24 879.778 1235.64 875.942 1238.99 C 840.117 1239.43 798.411 1240.36 763.015 1238.94 L 762.768 1234.95 C 762.428 1229.07 761.248 1223.7 765.018 1219.46 z"/>
<path transform="translate(0,0)" fill="rgb(60,107,74)" d="M 826.071 1225.07 C 834.867 1224.74 863.171 1224.92 870.474 1226.55 C 873.129 1229.09 872.596 1227.88 873.218 1231.16 C 872.235 1232.61 871.681 1233.36 870.551 1234.69 C 859.106 1234.22 836.108 1234.44 827.704 1233.18 C 825.785 1230.43 826.331 1228.88 826.071 1225.07 z"/>
<path transform="translate(0,0)" fill="rgb(60,107,74)" d="M 770.466 1224.24 C 773.333 1225.27 774.108 1225.81 776.739 1227.43 C 778.229 1230.68 778.14 1229.25 776.99 1232.77 C 774.198 1233.54 773.748 1233.87 771.054 1233.2 C 769.37 1230.13 770.206 1228.28 770.466 1224.24 z"/>
<path transform="translate(0,0)" fill="rgb(60,107,74)" d="M 802.895 1229.02 C 806.529 1229.33 813.275 1228.39 817.387 1228.23 L 816.001 1230.38 C 811.582 1231.9 807.671 1232.97 803.11 1231.34 L 802.895 1229.02 z"/>
<path transform="translate(0,0)" fill="rgb(60,107,74)" d="M 794.356 1228.46 L 795.712 1228.2 L 795.387 1230.77 L 794.406 1230.87 L 794.356 1228.46 z"/>
<path transform="translate(0,0)" fill="rgb(65,66,73)" d="M 846.843 1012.75 C 853.355 1016.53 860.967 1009.59 866.263 1015.32 C 866.01 1018.19 866.513 1017.8 864.952 1019.44 C 863.845 1017.4 863.849 1017.03 861.938 1015.66 C 859.196 1016.32 858.938 1017.05 856.969 1019.36 L 856.351 1020.1 C 851.024 1017.86 854.206 1017.4 846.283 1017.59 C 842.718 1019.87 837.505 1020.43 835.568 1016.06 L 836.904 1013.63 C 841.198 1012.08 839.578 1015.91 845.266 1015.38 L 846.843 1012.75 z"/>
<path transform="translate(0,0)" fill="rgb(65,66,73)" d="M 789.427 1033.59 C 797.436 1038.28 802.931 1035.04 811.503 1037.43 L 812.036 1038.69 L 810.912 1041.01 C 808.196 1042.25 809.21 1041.93 805.777 1041.29 C 799.356 1034.97 794.581 1044.08 787.974 1040.05 C 787.565 1036.49 787.831 1037.36 789.427 1033.59 z"/>
<path transform="translate(0,0)" fill="rgb(83,80,86)" d="M 841.892 1036.94 C 845.693 1035.51 849.393 1034.98 853.333 1036.15 C 853.501 1038.66 853.374 1037.99 852.083 1040.58 C 847.759 1042.23 845.06 1040.21 841.936 1040.94 C 840.206 1041.8 839.936 1041.63 837.974 1041.84 C 834.894 1040.18 835.882 1041.39 834.799 1038.18 L 835.947 1036.36 C 838.728 1035.54 839.02 1035.86 841.892 1036.94 z"/>
<path transform="translate(0,0)" fill="rgb(65,66,73)" d="M 841.936 1040.94 C 840.206 1041.8 839.936 1041.63 837.974 1041.84 C 834.894 1040.18 835.882 1041.39 834.799 1038.18 L 835.947 1036.36 C 838.728 1035.54 839.02 1035.86 841.892 1036.94 L 840.294 1039 L 841.936 1040.94 z"/>
<path transform="translate(0,0)" fill="rgb(65,66,73)" d="M 915.861 1232 L 915.268 1231.79 C 913.625 1228.85 914.116 1228.32 915.734 1225.74 C 919.361 1223.82 917.801 1224.08 921.642 1224.47 C 924.756 1227.19 923.832 1225.78 924.996 1229.93 C 922.871 1232.43 922.502 1233.35 919.518 1234.15 C 916.517 1233.31 917.613 1234.14 915.861 1232 z"/>
<path transform="translate(0,0)" fill="rgb(107,109,125)" d="M 924.996 1229.93 C 922.871 1232.43 922.502 1233.35 919.518 1234.15 C 916.517 1233.31 917.613 1234.14 915.861 1232 C 920.272 1231.75 920.871 1231.69 924.996 1229.93 z"/>
<path transform="translate(0,0)" fill="rgb(65,66,73)" d="M 823.161 1040.66 L 821.273 1041.67 C 817.774 1041.44 819.233 1042.09 816.721 1039.71 L 816.825 1037.63 C 821.09 1034.3 825.974 1035.93 831.11 1036.63 L 830.303 1040.34 C 827.27 1042.1 827.417 1040.82 823.161 1040.66 z"/>
<path transform="translate(0,0)" fill="rgb(83,80,86)" d="M 823.161 1040.66 C 822.25 1038.47 822.315 1039.57 823 1037.26 C 826.13 1036.62 827.989 1036.68 831.11 1036.63 L 830.303 1040.34 C 827.27 1042.1 827.417 1040.82 823.161 1040.66 z"/>
<path transform="translate(0,0)" fill="rgb(83,80,86)" d="M 778.9 1014.36 C 784.737 1014.15 791.725 1014.79 797.728 1014.88 L 798.651 1017.96 C 795.492 1019.34 783.057 1019.04 780.218 1017.94 L 778.9 1014.36 z"/>
<path transform="translate(0,0)" fill="rgb(83,80,86)" d="M 945.96 1003.18 C 950.294 1002.39 960.844 1002.38 964.505 1004.69 L 964.477 1007.25 C 960.053 1005.05 953.043 1009.56 946.636 1005.98 L 945.96 1003.18 z"/>
<path transform="translate(0,0)" fill="rgb(107,109,125)" d="M 893.91 1228.09 C 892.36 1226.49 892.501 1226.57 890.331 1226.07 L 890.689 1224.4 C 895.123 1222.94 899.217 1226.67 900.408 1230.85 L 899.633 1233.06 L 897.822 1233.78 L 894.527 1234.44 C 892.215 1233.14 892.163 1232.76 890.944 1230.47 L 891.462 1228.78 L 893.91 1228.09 z"/>
<path transform="translate(0,0)" fill="rgb(22,19,33)" d="M 894.527 1234.44 C 892.215 1233.14 892.163 1232.76 890.944 1230.47 L 891.462 1228.78 L 893.91 1228.09 L 896.998 1228.68 C 898.085 1231.05 897.9 1231.24 897.822 1233.78 L 894.527 1234.44 z"/>
<path transform="translate(0,0)" fill="rgb(149,148,151)" d="M 894.527 1234.44 C 892.215 1233.14 892.163 1232.76 890.944 1230.47 L 891.462 1228.78 L 893.91 1228.09 L 894.527 1234.44 z"/>
<path transform="translate(0,0)" fill="rgb(83,80,86)" d="M 812.93 1011.75 C 821.892 1018.88 819.591 1012.35 826.923 1015.56 L 827.608 1018.6 L 825.742 1019.62 C 821.386 1019.67 817.882 1019.89 814.098 1017.56 L 812.93 1011.75 z"/>
<path transform="translate(0,0)" fill="rgb(65,66,73)" d="M 869.341 1035.95 C 870.631 1037.18 870.366 1037.44 870.961 1039.39 L 870.322 1040.51 C 866.213 1041.28 864.705 1041.73 860.443 1041.14 L 858.431 1040.93 L 859.145 1039.22 C 863.306 1036.52 864.401 1036.39 869.341 1035.95 z"/>
<path transform="translate(0,0)" fill="rgb(83,80,86)" d="M 876.524 1003.57 C 884.523 998.9 883.666 1005.45 890.67 1006.88 C 890.412 1006.82 894.64 1005.43 895.126 1005.31 C 893.928 1010.48 879.675 1007.1 876.025 1004.96 L 876.524 1003.57 z"/>
<path transform="translate(0,0)" fill="rgb(65,66,73)" d="M 968.731 1002.62 L 970.382 1001.7 L 970.205 1002.73 C 973.046 1003.26 976.156 1003.66 978.869 1004.54 L 979.288 1008.03 C 974.926 1006.08 973.647 1007.93 968.708 1007.04 C 969.496 1005.82 969.316 1006.24 969.76 1004.82 L 965.824 1003.25 L 968.731 1002.62 z"/>
<path transform="translate(0,0)" fill="rgb(149,148,151)" d="M 1268.86 1223.35 C 1271.52 1224.12 1271.57 1224.27 1273.42 1226.45 C 1273.9 1229.35 1272.47 1231.02 1270.97 1233.72 L 1270.43 1234.45 C 1267.81 1231.47 1268.15 1226.96 1268.86 1223.35 z"/>
<path transform="translate(0,0)" fill="rgb(65,66,73)" d="M 778.42 1033.69 C 779.134 1034.38 779.029 1034.14 779.351 1035.12 C 780.333 1038.11 780.071 1034.2 783.323 1036.66 L 781.157 1041.79 L 779.914 1040.17 C 778.479 1040.37 777.771 1040.37 776.318 1040.39 C 775.747 1038.06 777.181 1036.34 778.42 1033.69 z"/>
<path transform="translate(0,0)" fill="rgb(184,184,189)" d="M 946.773 1224.15 L 946.662 1224.96 C 944.885 1226.34 944.452 1226.44 943.429 1228.48 C 946.205 1229.95 946.933 1227 949.195 1227.88 L 946.937 1231.2 C 945.232 1232.52 945.124 1232.47 943.095 1233.27 L 941.141 1232.36 L 940.758 1230.68 C 942.287 1226.37 942.421 1227.32 946.773 1224.15 z"/>
<path transform="translate(0,0)" fill="rgb(65,66,73)" d="M 798.706 1012.27 C 802.697 1014.29 803.267 1013.66 804.502 1017.05 C 803.715 1017.68 802.279 1018.48 801.368 1019.04 L 799.788 1018.06 L 798.706 1012.27 z"/>
<path transform="translate(0,0)" fill="rgb(83,80,86)" d="M 941.06 1000.68 C 942.342 1005.05 942.043 1005.74 939.574 1009.12 C 938.662 1005.93 938.346 1005.38 938.528 1002.14 L 941.06 1000.68 z"/>
<path transform="translate(0,0)" fill="rgb(65,66,73)" d="M 759.286 1047.58 L 761.157 1047.48 L 761.017 1050.12 C 760.206 1050.87 760.312 1050.66 759.208 1051.08 L 759.286 1047.58 z"/>
<path transform="translate(0,0)" fill="rgb(83,80,86)" d="M 760.243 1036.46 L 761.939 1036.47 L 761.273 1039.68 L 759.837 1039.54 L 760.243 1036.46 z"/>
<path transform="translate(0,0)" fill="rgb(60,151,148)" d="M 1019.4 58.2858 C 1025.78 60.5196 1040.97 84.039 1043.81 90.8575 C 1061.69 118.274 1086.71 181.18 1091.05 214.205 C 1092.95 229.818 1092.29 245.637 1089.09 261.037 C 1081.8 295.455 1049.65 352.163 1021.55 372.278 C 1000.26 359.103 971.138 316.818 963.293 293.183 C 955.513 273.172 953.039 270.566 950.21 247.273 C 946.291 198.212 966.559 150.277 987.704 107.002 C 998.068 86.2608 1004.99 76.1787 1019.4 58.2858 z"/>
<path transform="translate(0,0)" fill="rgb(53,108,103)" d="M 1043.81 90.8575 C 1061.69 118.274 1086.71 181.18 1091.05 214.205 C 1092.95 229.818 1092.29 245.637 1089.09 261.037 C 1081.8 295.455 1049.65 352.163 1021.55 372.278 C 1000.26 359.103 971.138 316.818 963.293 293.183 C 967.148 295.197 971.983 300.846 975.23 304.218 C 989.059 318.582 1001.88 326.48 1020.95 332.03 C 1021.51 294.518 1020.59 254.668 1020.13 217.068 C 1032.44 232.881 1045.12 262.005 1052.24 280.747 C 1070.9 244.158 1064.99 167.521 1052.36 129.809 C 1049.48 126.032 1049.21 125.065 1047.59 120.688 C 1048.8 117.614 1047.02 109.714 1046.77 104.791 C 1046.36 101.56 1044.51 95.5314 1043.81 90.8575 z"/>
<path transform="translate(0,0)" fill="rgb(83,169,164)" d="M 1046.77 104.791 C 1048.89 111.084 1051.79 123.135 1052.36 129.809 C 1049.48 126.032 1049.21 125.065 1047.59 120.688 C 1048.8 117.614 1047.02 109.714 1046.77 104.791 z"/>
<path transform="translate(0,0)" fill="rgb(100,173,174)" d="M 1019.4 58.2858 C 1025.78 60.5196 1040.97 84.039 1043.81 90.8575 C 1044.51 95.5314 1046.36 101.56 1046.77 104.791 C 1047.02 109.714 1048.8 117.614 1047.59 120.688 C 1030.44 84.1282 1025.38 66.1425 1000.69 111.897 C 987.301 136.713 976.441 161.747 966.623 188.214 C 961.807 200.804 957.642 238.65 950.21 247.273 C 946.291 198.212 966.559 150.277 987.704 107.002 C 998.068 86.2608 1004.99 76.1787 1019.4 58.2858 z"/>
<path transform="translate(0,0)" fill="rgb(100,173,174)" d="M 996.305 149.508 L 997.94 150.163 C 1006.61 159.649 993.28 194.172 984.962 202.669 C 983.785 202.2 981.28 201.235 980.726 200.249 C 973.711 187.769 988.153 156.68 996.305 149.508 z"/>
<path transform="translate(0,0)" fill="rgb(252,185,14)" d="M 930.48 817.093 C 1004.43 837.305 1038.17 836.355 1111.75 817.43 C 1112.43 829.594 1113.91 844.589 1116 856.592 C 1118.28 872.261 1121.66 887.949 1123.42 903.622 L 917.78 903.988 C 919.58 889.271 923.25 871.032 925.839 856.021 C 927.476 843.151 929.306 829.988 930.48 817.093 z"/>
<path transform="translate(0,0)" fill="rgb(250,209,91)" d="M 925.839 856.021 C 971.327 880.465 1034.8 884.68 1083.64 869.34 C 1093.71 866.178 1107.02 861.967 1116 856.592 C 1118.28 872.261 1121.66 887.949 1123.42 903.622 L 917.78 903.988 C 919.58 889.271 923.25 871.032 925.839 856.021 z"/>
<path transform="translate(0,0)" fill="rgb(60,151,148)" d="M 426.093 960.321 C 438.791 948.898 453.383 935.038 466.078 924.197 C 513.055 884.082 582.016 838.268 641.646 819.72 C 624.175 858.267 613.823 888.766 604.999 930.398 C 601.366 947.54 598.79 969.845 594.951 985.664 C 594.75 990.784 594.628 995.631 593.993 1000.72 L 594.068 1019.05 L 585.369 1005.07 C 553.01 954.382 518.959 941.871 460.897 950.41 C 449.111 953.028 437.489 956.337 426.093 960.321 z"/>
<path transform="translate(0,0)" fill="rgb(53,108,103)" d="M 426.093 960.321 C 438.791 948.898 453.383 935.038 466.078 924.197 C 513.055 884.082 582.016 838.268 641.646 819.72 C 624.175 858.267 613.823 888.766 604.999 930.398 C 601.366 947.54 598.79 969.845 594.951 985.664 C 593.301 979.886 593.937 969.391 594.135 963.186 C 594.582 948.401 595.354 933.629 596.452 918.879 C 597.339 908.175 600.172 884.577 598.977 875.06 C 594.225 869.905 577.137 877.301 571.243 879.819 C 532.335 896.443 492.096 919.781 460.762 948.374 L 460.897 950.41 C 449.111 953.028 437.489 956.337 426.093 960.321 z"/>
<path transform="translate(0,0)" fill="rgb(86,137,144)" d="M 593.993 1000.72 L 594.068 1019.05 L 585.369 1005.07 C 587.165 1005.78 588.913 1006.19 590.776 1006.7 C 593.172 1005.31 592.915 1003.98 593.993 1000.72 z"/>
<path transform="translate(0,0)" fill="rgb(60,151,148)" d="M 1399.12 819.882 C 1464.08 841.779 1571.23 908.164 1613.97 960.58 C 1601.05 955.121 1595.42 954.207 1582.77 950.258 C 1517.96 942.967 1492.4 952.449 1454.87 1007.25 L 1447.5 1020.03 L 1447.1 1006.27 C 1446.58 998.405 1446.36 991.33 1446.23 983.462 C 1443.19 969.946 1440.61 952.132 1437.89 937.92 C 1429.34 893.31 1418.69 860.406 1399.12 819.882 z"/>
<path transform="translate(0,0)" fill="rgb(53,108,103)" d="M 1399.12 819.882 C 1464.08 841.779 1571.23 908.164 1613.97 960.58 C 1601.05 955.121 1595.42 954.207 1582.77 950.258 C 1576.78 932.899 1458.51 868.867 1441.83 873.716 C 1440.92 879.093 1443.55 897.277 1443.95 903.921 C 1445.22 925.445 1449.22 962.849 1446.23 983.462 C 1443.19 969.946 1440.61 952.132 1437.89 937.92 C 1429.34 893.31 1418.69 860.406 1399.12 819.882 z"/>
<path transform="translate(0,0)" fill="rgb(86,137,144)" d="M 1447.1 1006.27 C 1449.4 1006.52 1452.71 1006.77 1454.87 1007.25 L 1447.5 1020.03 L 1447.1 1006.27 z"/>
<path transform="translate(0,0)" fill="url(#Gradient5)" d="M 471.38 881.046 C 526.742 827.416 588.306 785.174 663.146 763.674 C 674.053 760.541 687.411 757.34 698.718 757.407 C 705.487 757.447 707.419 765.988 708.002 771.191 C 712.782 798.218 724.694 824.936 742.223 845.748 C 744.264 847.911 746.789 850.438 748.667 852.673 L 749.25 853.153 C 754.453 857.5 763.947 867.841 768.229 870.833 C 786.279 883.452 808.432 893.718 828.001 903.95 C 808.538 904.078 778.064 904.184 758.838 902.872 C 725.1 877.533 711.441 851.749 693.286 814.245 C 666.571 841.225 628.995 929.313 617.501 967.625 L 615.388 965.431 C 622.259 923.228 634.06 881.977 650.55 842.525 C 655.774 830.021 662.016 817.613 667.894 805.412 C 669.541 801.994 668.814 800.498 667.575 797.63 C 659.784 790.933 635.418 803.361 626.133 806.678 C 571.59 826.158 522.572 856.347 477.646 892.523 C 460.503 906.326 440.956 926.394 423.575 938.467 L 422.56 939.164 C 429.511 926.086 459.655 889.219 471.38 881.046 z"/>
<path transform="translate(0,0)" fill="rgb(100,173,174)" d="M 471.38 881.046 C 526.742 827.416 588.306 785.174 663.146 763.674 C 674.053 760.541 687.411 757.34 698.718 757.407 C 705.487 757.447 707.419 765.988 708.002 771.191 C 712.782 798.218 724.694 824.936 742.223 845.748 L 740.821 847.905 L 739.997 847.021 C 729.749 835.935 722.249 824.184 714.956 812.027 C 710.062 803.868 697.147 770.738 688.972 771.638 C 644.202 776.564 582.834 805.889 547.584 828.334 C 530.553 839.297 513.932 850.883 497.753 863.067 C 492.281 867.117 476.431 880.4 471.38 881.046 z"/>
<path transform="translate(0,0)" fill="rgb(60,151,148)" d="M 742.223 845.748 C 744.264 847.911 746.789 850.438 748.667 852.673 C 744.665 852.42 743.65 850.746 740.821 847.905 L 742.223 845.748 z"/>
<path transform="translate(0,0)" fill="url(#Gradient4)" d="M 1294.46 849.829 C 1310.21 831.733 1322.89 813.066 1327.99 789.227 C 1329.57 781.861 1331.88 770.55 1334.9 764.015 C 1341.27 750.21 1373.69 762.274 1385.18 765.967 C 1445.91 785.814 1501.76 818.279 1549.07 861.233 C 1554.02 865.652 1558.87 870.186 1563.61 874.83 C 1582.97 888.551 1611.97 927.477 1626.53 946.476 L 1625.7 945.84 C 1620.43 941.753 1613.28 934.361 1607.81 929.51 C 1593.58 916.954 1579.21 904.555 1564.71 892.317 C 1525.59 859.94 1475.34 832.138 1429.02 811.879 C 1419.01 807.503 1381.69 790.574 1373.41 798.687 C 1370.05 807.699 1387.49 833.623 1391.36 843.636 C 1405.97 881.406 1417.64 918.054 1424.61 958.013 L 1422.41 962.054 C 1410.43 929.175 1373.15 833.3 1348.86 814.994 C 1333.74 844.165 1311.6 885.367 1281.93 902.886 C 1266.02 903.646 1230.26 903.916 1215.28 902.977 C 1232.44 892.748 1254.25 884.836 1270.85 872.352 C 1275.96 868.508 1284.35 860.243 1289.34 855.611 L 1294.46 849.829 z"/>
<path transform="translate(0,0)" fill="url(#Gradient3)" d="M 1294.46 849.829 C 1310.21 831.733 1322.89 813.066 1327.99 789.227 C 1329.57 781.861 1331.88 770.55 1334.9 764.015 C 1341.27 750.21 1373.69 762.274 1385.18 765.967 C 1445.91 785.814 1501.76 818.279 1549.07 861.233 C 1554.02 865.652 1558.87 870.186 1563.61 874.83 C 1558.53 876.732 1522.27 847.266 1515.75 842.851 C 1467.41 810.109 1413.5 781.318 1355.35 771.78 C 1341.61 769.524 1330.88 809.295 1323.63 818.177 C 1316 828.782 1308.19 840.389 1297.96 850.276 L 1297.11 851.093 L 1294.46 849.829 z"/>
<path transform="translate(0,0)" fill="rgb(86,137,144)" d="M 1289.34 855.611 L 1294.46 849.829 L 1297.11 851.093 C 1294.35 853.857 1293.67 855.424 1289.34 855.611 z"/>
<path transform="translate(0,0)" fill="rgb(60,107,74)" d="M 642.358 1062.94 C 651.333 1032.79 683.024 1032.95 705.273 1048.38 C 712.943 1053.25 715.002 1055.42 719.871 1063.08 C 720.333 1064.29 721.39 1065.95 720.631 1066.96 C 710.752 1080.11 674.863 1078.59 663.942 1085.58 C 677.367 1087.76 702.361 1090.92 711.541 1101.2 L 718.628 1106.33 C 719.813 1101.49 724.924 1099.55 729.573 1100.38 L 730.794 1098.68 C 758.647 1122.17 731.475 1132.66 715.284 1148.99 C 717.397 1150.34 726.018 1155.65 727.265 1157 C 727.612 1161.86 728.487 1167.62 727.297 1172.19 C 724.621 1170.28 721.249 1167.64 717.885 1167.93 C 719.443 1173.88 716.185 1175.67 712.15 1180.11 C 687.492 1203.88 641.042 1210.38 641.776 1166.11 L 641.877 1161.19 C 643.123 1143.13 621.251 1134.52 627.505 1112.31 C 631.137 1098.37 632.691 1096.34 643.5 1086.88 C 641.821 1078.43 640.338 1071.42 642.358 1062.94 z"/>
<path transform="translate(0,0)" fill="rgb(94,172,77)" d="M 642.358 1062.94 C 651.333 1032.79 683.024 1032.95 705.273 1048.38 C 712.943 1053.25 715.002 1055.42 719.871 1063.08 C 720.333 1064.29 721.39 1065.95 720.631 1066.96 C 710.752 1080.11 674.863 1078.59 663.942 1085.58 C 677.367 1087.76 702.361 1090.92 711.541 1101.2 L 718.628 1106.33 C 721.634 1109.05 725.041 1112 727.888 1114.83 C 721.579 1116.89 716.923 1118.4 710.371 1119.81 C 705.468 1119.85 703.5 1121.06 699.15 1122.96 C 678.47 1131.94 650.981 1137.89 633.072 1120.12 C 629.605 1116.68 628.851 1117.26 627.505 1112.31 C 631.137 1098.37 632.691 1096.34 643.5 1086.88 C 641.821 1078.43 640.338 1071.42 642.358 1062.94 z"/>
<path transform="translate(0,0)" fill="rgb(168,204,117)" d="M 642.358 1062.94 C 651.333 1032.79 683.024 1032.95 705.273 1048.38 L 701.438 1054.1 C 694.414 1048.89 680.018 1046.61 671.115 1048 C 656.998 1050.2 652.659 1056.6 642.358 1062.94 z"/>
<path transform="translate(0,0)" fill="rgb(60,107,74)" d="M 719.871 1063.08 C 720.333 1064.29 721.39 1065.95 720.631 1066.96 C 710.752 1080.11 674.863 1078.59 663.942 1085.58 C 662.98 1085.54 662.52 1085.22 661.551 1084.84 L 661.825 1083.49 C 671.315 1073.9 687.825 1067.73 701.03 1065.44 C 703.716 1064.97 709.231 1065.29 713.449 1064.71 L 714.337 1064.58 C 715.707 1064.33 718.415 1063.49 719.871 1063.08 z"/>
<path transform="translate(0,0)" fill="rgb(250,209,91)" d="M 711.541 1101.2 L 718.628 1106.33 C 721.634 1109.05 725.041 1112 727.888 1114.83 C 721.579 1116.89 716.923 1118.4 710.371 1119.81 C 708.054 1119.42 707.945 1119.3 705.889 1118.38 C 703.392 1112.43 707.86 1105.77 711.541 1101.2 z"/>
<path transform="translate(0,0)" fill="rgb(168,204,117)" d="M 643.5 1086.88 C 647.437 1086.9 647.981 1086.22 650.668 1088.26 C 650.485 1094.06 632.566 1107.49 627.505 1112.31 C 631.137 1098.37 632.691 1096.34 643.5 1086.88 z"/>
<path transform="translate(0,0)" fill="rgb(250,209,91)" d="M 705.273 1048.38 C 712.943 1053.25 715.002 1055.42 719.871 1063.08 C 718.415 1063.49 715.707 1064.33 714.337 1064.58 C 710.058 1064.23 703.514 1064.34 699.056 1064.28 L 701.438 1054.1 L 705.273 1048.38 z"/>
<path transform="translate(0,0)" fill="rgb(60,107,74)" d="M 695.782 1158.6 L 701.692 1160.15 L 703.325 1161.65 C 699.685 1166.4 698.82 1167.99 701.709 1173.46 L 702.198 1173.81 L 700.974 1174.31 C 704.347 1176.03 709.941 1178.09 712.15 1180.11 C 687.492 1203.88 641.042 1210.38 641.776 1166.11 L 641.877 1161.19 C 660.035 1160.7 677.107 1159.95 695.488 1159.72 L 695.782 1158.6 z"/>
<path transform="translate(0,0)" fill="rgb(94,172,77)" d="M 695.782 1158.6 L 701.692 1160.15 L 703.325 1161.65 C 699.685 1166.4 698.82 1167.99 701.709 1173.46 L 702.198 1173.81 L 700.974 1174.31 C 680.639 1183.98 656.329 1185.86 641.776 1166.11 L 641.877 1161.19 C 660.035 1160.7 677.107 1159.95 695.488 1159.72 L 695.782 1158.6 z"/>
<path transform="translate(0,0)" fill="rgb(143,191,112)" d="M 695.782 1158.6 L 701.692 1160.15 L 703.325 1161.65 C 699.685 1166.4 698.82 1167.99 701.709 1173.46 C 698.603 1173 698.105 1173.13 695.852 1171.17 C 694.191 1167.59 695.084 1163.82 695.488 1159.72 L 695.782 1158.6 z"/>
<path transform="translate(0,0)" fill="rgb(39,23,41)" d="M 730.794 1098.68 C 758.647 1122.17 731.475 1132.66 715.284 1148.99 C 717.397 1150.34 726.018 1155.65 727.265 1157 C 727.612 1161.86 728.487 1167.62 727.297 1172.19 C 724.621 1170.28 721.249 1167.64 717.885 1167.93 C 719.443 1173.88 716.185 1175.67 712.15 1180.11 C 709.941 1178.09 704.347 1176.03 700.974 1174.31 L 702.198 1173.81 L 701.709 1173.46 C 698.82 1167.99 699.685 1166.4 703.325 1161.65 L 701.692 1160.15 L 695.782 1158.6 C 690.287 1155.63 673.384 1151.69 666.425 1149.84 C 682.133 1145.67 727.059 1135.16 727.888 1114.83 C 725.041 1112 721.634 1109.05 718.628 1106.33 C 719.813 1101.49 724.924 1099.55 729.573 1100.38 L 730.794 1098.68 z"/>
<path transform="translate(0,0)" fill="rgb(250,209,91)" d="M 703.325 1161.65 L 715.258 1166.36 L 717.155 1168.18 L 717.885 1167.93 C 719.443 1173.88 716.185 1175.67 712.15 1180.11 C 709.941 1178.09 704.347 1176.03 700.974 1174.31 L 702.198 1173.81 L 701.709 1173.46 C 698.82 1167.99 699.685 1166.4 703.325 1161.65 z"/>
<path transform="translate(0,0)" fill="rgb(98,111,70)" d="M 717.155 1168.18 L 717.885 1167.93 C 719.443 1173.88 716.185 1175.67 712.15 1180.11 C 709.941 1178.09 704.347 1176.03 700.974 1174.31 L 702.198 1173.81 C 706.778 1172.99 713.452 1171.02 717.155 1168.18 z"/>
<path transform="translate(0,0)" fill="rgb(73,22,60)" d="M 701.692 1160.15 C 708.038 1154.36 711.943 1161.62 715.258 1166.36 L 703.325 1161.65 L 701.692 1160.15 z"/>
<path transform="translate(0,0)" fill="rgb(94,172,77)" d="M 1338.94 1047.15 C 1361.87 1032.72 1394.64 1033.75 1400.6 1065.21 C 1401.86 1072.84 1400.39 1079.34 1398.9 1086.86 C 1406.97 1092.69 1411.22 1101.04 1413.47 1110.67 L 1414.68 1114.06 C 1418.96 1138.06 1399.36 1143.23 1400.34 1160.93 L 1401.65 1167.66 C 1396.66 1212.38 1349.43 1204.26 1327.91 1178.44 C 1325.56 1175.16 1324.17 1172.9 1324.92 1168.8 C 1330.31 1164.91 1331.68 1164.11 1337.79 1161.6 L 1338.21 1161.07 C 1344.37 1156.88 1367.26 1151.68 1376.22 1148.88 C 1361.74 1147.11 1313.67 1134.02 1314.9 1115.67 C 1320.01 1109.76 1323.61 1106.79 1329.86 1102.19 C 1344.87 1089.87 1358.66 1088.57 1377.11 1086.36 C 1362.78 1077.17 1329.67 1079.57 1320.39 1064.96 L 1321.02 1062.66 C 1327.18 1056.22 1331.29 1051.76 1338.94 1047.15 z"/>
<path transform="translate(0,0)" fill="rgb(60,107,74)" d="M 1338.21 1161.07 C 1345.13 1161.68 1356.56 1160.23 1364.09 1160.05 C 1376.45 1159.77 1388 1160.26 1400.34 1160.93 L 1401.65 1167.66 C 1396.66 1212.38 1349.43 1204.26 1327.91 1178.44 C 1325.56 1175.16 1324.17 1172.9 1324.92 1168.8 C 1330.31 1164.91 1331.68 1164.11 1337.79 1161.6 L 1338.21 1161.07 z"/>
<path transform="translate(0,0)" fill="rgb(94,172,77)" d="M 1338.21 1161.07 C 1345.13 1161.68 1356.56 1160.23 1364.09 1160.05 C 1376.45 1159.77 1388 1160.26 1400.34 1160.93 L 1401.65 1167.66 C 1392.14 1177.27 1385.18 1180.46 1371.13 1181.26 C 1364.44 1181.64 1345.54 1177.75 1341.02 1173.86 C 1344.13 1169.72 1340.43 1164.83 1337.79 1161.6 L 1338.21 1161.07 z"/>
<path transform="translate(0,0)" fill="rgb(250,209,91)" d="M 1324.92 1168.8 C 1330.31 1164.91 1331.68 1164.11 1337.79 1161.6 C 1340.43 1164.83 1344.13 1169.72 1341.02 1173.86 L 1338.36 1173.86 C 1333.88 1177.27 1333.56 1177.26 1327.91 1178.44 C 1325.56 1175.16 1324.17 1172.9 1324.92 1168.8 z"/>
<path transform="translate(0,0)" fill="rgb(98,111,70)" d="M 1324.92 1168.8 C 1330.02 1171.92 1332.42 1172.63 1338.36 1173.86 C 1333.88 1177.27 1333.56 1177.26 1327.91 1178.44 C 1325.56 1175.16 1324.17 1172.9 1324.92 1168.8 z"/>
<path transform="translate(0,0)" fill="rgb(60,107,74)" d="M 1329.86 1102.19 C 1337.65 1106.89 1336.24 1112.29 1335.82 1120.46 C 1356.52 1129.39 1382.92 1138.08 1404.6 1125.49 C 1408.12 1123.45 1413.87 1118.14 1414.68 1114.06 C 1418.96 1138.06 1399.36 1143.23 1400.34 1160.93 C 1388 1160.26 1376.45 1159.77 1364.09 1160.05 C 1356.56 1160.23 1345.13 1161.68 1338.21 1161.07 C 1344.37 1156.88 1367.26 1151.68 1376.22 1148.88 C 1361.74 1147.11 1313.67 1134.02 1314.9 1115.67 C 1320.01 1109.76 1323.61 1106.79 1329.86 1102.19 z"/>
<path transform="translate(0,0)" fill="rgb(250,209,91)" d="M 1329.86 1102.19 C 1337.65 1106.89 1336.24 1112.29 1335.82 1120.46 C 1328 1118.47 1323.56 1118.57 1314.9 1115.67 C 1320.01 1109.76 1323.61 1106.79 1329.86 1102.19 z"/>
<path transform="translate(0,0)" fill="rgb(60,107,74)" d="M 1338.94 1047.15 C 1339.34 1048.45 1340.09 1050.6 1340.29 1051.86 C 1341.14 1056.33 1342.2 1060.73 1342.08 1065.27 C 1350.52 1067.02 1374.49 1077.12 1379.32 1083.64 L 1379.18 1085.56 L 1377.11 1086.36 C 1362.78 1077.17 1329.67 1079.57 1320.39 1064.96 L 1321.02 1062.66 C 1327.18 1056.22 1331.29 1051.76 1338.94 1047.15 z"/>
<path transform="translate(0,0)" fill="rgb(250,209,91)" d="M 1338.94 1047.15 C 1339.34 1048.45 1340.09 1050.6 1340.29 1051.86 C 1341.14 1056.33 1342.2 1060.73 1342.08 1065.27 C 1336.02 1064.96 1327.23 1063.5 1321.02 1062.66 C 1327.18 1056.22 1331.29 1051.76 1338.94 1047.15 z"/>
<path transform="translate(0,0)" fill="rgb(168,204,117)" d="M 1338.94 1047.15 C 1361.87 1032.72 1394.64 1033.75 1400.6 1065.21 L 1399.77 1066.43 C 1396.73 1065.7 1391.91 1058.32 1386.77 1054.51 C 1373.21 1044.46 1356.14 1049.36 1340.29 1051.86 C 1340.09 1050.6 1339.34 1048.45 1338.94 1047.15 z"/>
<path transform="translate(0,0)" fill="rgb(168,204,117)" d="M 1413.47 1110.67 C 1410 1110.08 1392.84 1093.21 1392.8 1087.89 L 1394.26 1086.54 L 1398.9 1086.86 C 1406.97 1092.69 1411.22 1101.04 1413.47 1110.67 z"/>
<path transform="translate(0,0)" fill="rgb(94,172,77)" d="M 1468.45 418.327 C 1457.21 441.842 1413.76 497.898 1416.37 525.918 C 1417.19 534.61 1459.72 566.525 1464.27 575.539 L 1460.88 580.72 C 1456.65 579.36 1452.91 578.552 1448.59 577.581 C 1440.37 576.159 1432.13 574.934 1423.85 573.908 C 1430.8 571.565 1444.74 576.082 1449.79 572.437 C 1446.14 572.255 1432.96 568.148 1430.63 565.648 C 1425.57 563.815 1415.19 562.422 1408.92 560.709 C 1397.62 560.88 1386.03 559.728 1374.7 560.213 C 1362.19 560.749 1350.1 562.393 1337.53 562.832 C 1333.25 555.452 1346.22 538.845 1350.61 532.917 C 1373.82 501.604 1402.83 464.433 1435.84 443.225 C 1448.12 431.181 1454.28 427.692 1468.45 418.327 z"/>
<path transform="translate(0,0)" fill="url(#Gradient2)" d="M 1408.92 560.709 C 1397.62 560.88 1386.03 559.728 1374.7 560.213 C 1362.19 560.749 1350.1 562.393 1337.53 562.832 C 1333.25 555.452 1346.22 538.845 1350.61 532.917 C 1373.82 501.604 1402.83 464.433 1435.84 443.225 C 1434.13 450.372 1416.52 465.785 1410.55 473.642 C 1393.28 496.328 1377.97 520.447 1364.79 545.735 C 1373.01 549.088 1400.45 558.661 1408.92 560.709 z"/>
<path transform="translate(0,0)" fill="rgb(37,47,38)" d="M 1430.63 565.648 C 1438.51 567.098 1460.15 575.412 1464.27 575.539 L 1460.88 580.72 C 1456.65 579.36 1452.91 578.552 1448.59 577.581 C 1440.37 576.159 1432.13 574.934 1423.85 573.908 C 1430.8 571.565 1444.74 576.082 1449.79 572.437 C 1446.14 572.255 1432.96 568.148 1430.63 565.648 z"/>
<path transform="translate(0,0)" fill="rgb(94,172,77)" d="M 573.151 419.128 C 583.34 425.254 595.154 433.536 603.196 442.178 C 636.207 463.291 666.118 499.043 689.287 530.519 C 697.852 542.156 703.973 549.258 704.91 564.074 C 689.671 561.759 678.585 559.89 663.081 560.093 C 653.773 560.215 638.709 561.987 630.227 561.479 C 613.161 565.387 591.422 570.183 575.082 575.484 C 585.356 564.246 622.143 534.686 624.426 525.254 C 629.802 503.046 581.864 438.725 573.151 419.128 z"/>
<path transform="translate(0,0)" fill="url(#Gradient1)" d="M 603.196 442.178 C 636.207 463.291 666.118 499.043 689.287 530.519 C 697.852 542.156 703.973 549.258 704.91 564.074 C 689.671 561.759 678.585 559.89 663.081 560.093 C 653.773 560.215 638.709 561.987 630.227 561.479 C 641.022 558.985 664.79 550.961 676.015 547.348 C 664.082 518.219 645.909 493.983 626.998 468.922 C 621.334 461.416 607.333 450.659 603.196 442.178 z"/>
<path transform="translate(0,0)" fill="rgb(250,209,91)" d="M 1224.17 252.443 C 1232.92 244.172 1247.54 232.286 1257.11 224.836 C 1258.67 225.338 1260.23 225.864 1261.77 226.414 C 1291.19 236.787 1315.45 261.71 1328.74 289.609 C 1334.13 300.225 1339.43 314.336 1340.87 326.213 C 1333.92 339.322 1324.91 353.176 1315.29 364.498 C 1308.51 352.411 1299.5 333.091 1292.45 322.47 C 1272.94 294.631 1249.94 273.901 1224.17 252.443 z"/>
<path transform="translate(0,0)" fill="rgb(252,185,14)" d="M 1328.74 289.609 C 1334.13 300.225 1339.43 314.336 1340.87 326.213 C 1333.92 339.322 1324.91 353.176 1315.29 364.498 C 1308.51 352.411 1299.5 333.091 1292.45 322.47 C 1301.85 315.981 1312.39 299.793 1320.89 291.817 C 1324.03 288.871 1324.85 289.47 1328.74 289.609 z"/>
<path transform="translate(0,0)" fill="rgb(250,209,91)" d="M 784.618 225.458 C 792.528 231.206 810.962 246.339 817.321 253.188 C 788.14 275.112 771.713 292.276 749.624 322.101 C 740.604 334.7 733.472 349.953 726.639 363.938 C 717.95 352.127 707.966 339.327 701.734 326.18 C 703.47 313.651 706.201 302.312 712.209 291.094 C 728.686 259.182 749.765 237.201 784.618 225.458 z"/>
<path transform="translate(0,0)" fill="rgb(252,185,14)" d="M 712.209 291.094 C 714.416 290.772 720.824 289.14 722.149 291.066 C 730.331 302.951 740.045 311.798 749.624 322.101 C 740.604 334.7 733.472 349.953 726.639 363.938 C 717.95 352.127 707.966 339.327 701.734 326.18 C 703.47 313.651 706.201 302.312 712.209 291.094 z"/>
<path transform="translate(0,0)" fill="rgb(250,209,91)" d="M 1308.25 175.355 C 1309.93 175.77 1311.61 176.208 1313.27 176.667 C 1337.95 183.512 1356.32 200.106 1368.81 222.004 C 1375.15 232.795 1380.26 243.725 1376.45 256.271 C 1370.94 274.409 1360.19 293.238 1350.97 309.608 C 1346.49 294.874 1342.76 286.808 1335.68 273.069 C 1320.67 245.441 1295.31 228.1 1267.45 215.604 C 1279.24 202.522 1295.44 187.679 1308.25 175.355 z"/>
<path transform="translate(0,0)" fill="rgb(252,185,14)" d="M 1368.81 222.004 C 1375.15 232.795 1380.26 243.725 1376.45 256.271 C 1370.94 274.409 1360.19 293.238 1350.97 309.608 C 1346.49 294.874 1342.76 286.808 1335.68 273.069 C 1343.23 263.944 1359.81 224.453 1368.81 222.004 z"/>
<path transform="translate(0,0)" fill="rgb(250,209,91)" d="M 733.209 175.819 C 745.917 188.242 762.309 203.221 774.325 215.814 C 745.549 229.463 722.325 245.337 706.344 274.087 C 699.471 287.256 695.992 295.756 691.462 309.821 C 682.32 294.717 668.478 264.664 663.178 248.036 C 664.797 239.279 668.781 229.818 673.214 222.124 C 687.534 197.883 704.791 183.179 732.6 175.976 L 733.209 175.819 z"/>
<path transform="translate(0,0)" fill="rgb(252,185,14)" d="M 673.214 222.124 C 685.612 227.494 696.562 257.874 704.468 269.601 C 704.841 270.155 705.723 272.988 706.344 274.087 C 699.471 287.256 695.992 295.756 691.462 309.821 C 682.32 294.717 668.478 264.664 663.178 248.036 C 664.797 239.279 668.781 229.818 673.214 222.124 z"/>
<path transform="translate(0,0)" fill="rgb(60,151,148)" d="M 634.517 975.046 C 636.234 950.83 677.454 870.01 690.476 848.551 C 703.846 871.968 713.279 883.776 731.336 903.49 C 717.454 907.047 708.86 909.407 696.92 917.513 C 667.423 945.858 671.726 968.028 670.902 1007.37 C 645.05 1013.86 640.213 1015.83 618.272 1031.81 C 622.859 1015.18 628.852 990.734 634.517 975.046 z"/>
<path transform="translate(0,0)" fill="rgb(53,108,103)" d="M 634.517 975.046 C 636.234 950.83 677.454 870.01 690.476 848.551 C 703.846 871.968 713.279 883.776 731.336 903.49 C 717.454 907.047 708.86 909.407 696.92 917.513 C 692.064 912.513 688.857 907.632 684.888 901.967 C 666.962 917.986 657.772 936.4 645.605 956.845 C 642.949 961.309 637.557 971.432 634.517 975.046 z"/>
<path transform="translate(0,0)" fill="rgb(60,151,148)" d="M 1352.25 848.023 C 1363.89 867.678 1402.97 948.598 1404.56 968.124 C 1409.43 984.471 1418.95 1014.07 1421.82 1030.21 C 1408.62 1019.47 1386.76 1009.85 1369.86 1007.59 C 1369.31 970.572 1375.95 946.434 1345.72 918.512 C 1332.27 909.29 1324.92 907.077 1309.29 903.419 C 1326.86 885.66 1339.49 869.785 1352.25 848.023 z"/>
<path transform="translate(0,0)" fill="rgb(53,108,103)" d="M 1352.25 848.023 C 1363.89 867.678 1402.97 948.598 1404.56 968.124 C 1398.04 962.157 1385.31 939.421 1379.89 930.703 C 1373.72 920.733 1366.58 911.4 1358.56 902.841 C 1353.06 907.519 1349.31 912.282 1345.72 918.512 C 1332.27 909.29 1324.92 907.077 1309.29 903.419 C 1326.86 885.66 1339.49 869.785 1352.25 848.023 z"/>
<path transform="translate(0,0)" fill="rgb(250,209,91)" d="M 1318.05 165.723 C 1327.28 154.415 1385.62 88.6646 1394.84 84.5119 C 1396.34 83.8359 1396.38 83.9951 1397.9 84.5736 C 1403.12 91.8687 1402.04 116.885 1402.05 127.031 C 1402.18 154.035 1393.91 203.157 1385.9 228.389 C 1381.24 218.925 1377.21 211.098 1371.59 202.118 C 1354.91 180.556 1342.37 174.681 1318.05 165.723 z"/>
<path transform="translate(0,0)" fill="rgb(252,185,14)" d="M 1371.59 202.118 C 1377.17 196.073 1395.22 130.859 1400.51 125.686 L 1402.05 127.031 C 1402.18 154.035 1393.91 203.157 1385.9 228.389 C 1381.24 218.925 1377.21 211.098 1371.59 202.118 z"/>
<path transform="translate(0,0)" fill="rgb(250,209,91)" d="M 643.884 82.9285 C 665.233 94.6007 703.305 144.732 723.987 165.611 C 697.655 175.234 687.461 180.711 669.491 203.393 C 664.613 210.929 660.289 219.242 655.978 227.145 C 646.588 196.421 638.975 150.42 639.92 118.208 C 639.801 106.511 639.862 94.0818 643.884 82.9285 z"/>
<path transform="translate(0,0)" fill="rgb(252,185,14)" d="M 639.92 118.208 L 642.029 119.254 C 650.943 150.687 658.204 172.516 669.491 203.393 C 664.613 210.929 660.289 219.242 655.978 227.145 C 646.588 196.421 638.975 150.42 639.92 118.208 z"/>
<path transform="translate(0,0)" fill="rgb(94,172,77)" d="M 1340.09 577.306 C 1364.59 573.091 1399.08 573.796 1423.85 573.908 C 1432.13 574.934 1440.37 576.159 1448.59 577.581 C 1452.91 578.552 1456.65 579.36 1460.88 580.72 C 1446.4 596.688 1383.19 604.58 1383.64 634.615 C 1383.82 646.187 1390.62 665.879 1393.64 677.677 C 1387.03 668.934 1368.36 647.614 1363.94 639.672 C 1357.15 636.302 1349.52 628.811 1341.58 624.23 C 1336.05 620.023 1335.41 600.635 1336.4 593.811 C 1337.02 589.494 1337.59 589.164 1340.72 586.81 L 1340.09 577.306 z"/>
<path transform="translate(0,0)" fill="rgb(53,108,103)" d="M 1340.09 577.306 C 1364.59 573.091 1399.08 573.796 1423.85 573.908 C 1432.13 574.934 1440.37 576.159 1448.59 577.581 C 1418.57 580.559 1384.16 586.342 1360.84 607.274 C 1352.24 614.996 1360.46 631.157 1363.94 639.672 C 1357.15 636.302 1349.52 628.811 1341.58 624.23 C 1336.05 620.023 1335.41 600.635 1336.4 593.811 C 1337.02 589.494 1337.59 589.164 1340.72 586.81 L 1340.09 577.306 z"/>
<path transform="translate(0,0)" fill="rgb(22,19,33)" d="M 1341.58 624.23 C 1336.05 620.023 1335.41 600.635 1336.4 593.811 C 1337.02 589.494 1337.59 589.164 1340.72 586.81 C 1341.39 596.202 1343.05 615.673 1341.58 624.23 z"/>
<path transform="translate(0,0)" fill="rgb(94,172,77)" d="M 591.476 576.58 C 623.836 569.774 669.323 573.627 702.176 577.365 C 700.434 594.562 699.098 606.509 699.99 623.831 C 692.327 630.014 684.747 636.543 677.093 642.617 C 668.117 652.269 657.397 666.189 648.657 674.692 C 653.196 657.817 657.327 644.496 656.952 626.904 C 641.167 603.491 601.131 594.109 577.255 580.231 C 583.093 578.227 585.413 577.596 591.476 576.58 z"/>
<path transform="translate(0,0)" fill="rgb(53,108,103)" d="M 591.476 576.58 C 623.836 569.774 669.323 573.627 702.176 577.365 C 700.434 594.562 699.098 606.509 699.99 623.831 C 692.327 630.014 684.747 636.543 677.093 642.617 C 688.441 614.692 687.761 605.527 659.046 593.234 C 646.693 587.946 636.46 583.637 622.899 581.206 C 613.103 579.449 601.675 579.223 592.437 576.836 L 591.476 576.58 z"/>
<path transform="translate(0,0)" fill="rgb(94,172,77)" d="M 881.951 800.09 C 890.24 802.938 909.595 809.055 916.91 812.629 C 915.48 827.07 914.281 840.423 911.66 854.733 C 908.614 871.472 906.135 887.001 902.154 903.595 C 889.785 902.631 871.962 903.309 859.226 903.595 C 866.57 880.009 873.265 857.518 878.08 833.265 C 879.286 822.197 880.576 811.138 881.951 800.09 z"/>
<path transform="translate(0,0)" fill="rgb(53,108,103)" d="M 881.951 800.09 C 890.24 802.938 909.595 809.055 916.91 812.629 C 915.48 827.07 914.281 840.423 911.66 854.733 C 911.442 854.043 911.224 853.353 911.005 852.663 C 904.509 848.604 883.393 836.329 878.08 833.265 C 879.286 822.197 880.576 811.138 881.951 800.09 z"/>
<path transform="translate(0,0)" fill="rgb(94,172,77)" d="M 1124.89 812.807 C 1135.61 808.466 1148.26 804.187 1159.24 800.168 C 1161.2 811.177 1162.25 821.747 1163.44 832.84 C 1168.12 856.958 1174.41 880.737 1182.27 904.015 C 1168.22 903.808 1154.54 903.532 1140.48 904.043 C 1135.96 887.345 1132.32 870.422 1129.57 853.344 C 1126.91 841.009 1125.94 825.507 1124.89 812.807 z"/>
<path transform="translate(0,0)" fill="rgb(53,108,103)" d="M 1124.89 812.807 C 1135.61 808.466 1148.26 804.187 1159.24 800.168 C 1161.2 811.177 1162.25 821.747 1163.44 832.84 C 1161.17 833.621 1131.55 851.536 1129.57 853.344 C 1126.91 841.009 1125.94 825.507 1124.89 812.807 z"/>
<path transform="translate(0,0)" fill="rgb(94,172,77)" d="M 577.097 414.181 C 618.987 419.74 674.593 438.344 703.751 470.202 C 704.458 475.939 704.958 480.126 705.056 485.881 C 706.174 500.128 706.467 516.319 707.251 530.881 C 682.613 490.643 650.241 463.965 613.936 435.691 C 601.517 428.763 589.235 421.591 577.097 414.181 z"/>
<path transform="translate(0,0)" fill="rgb(168,204,117)" d="M 577.097 414.181 C 618.987 419.74 674.593 438.344 703.751 470.202 C 704.458 475.939 704.958 480.126 705.056 485.881 C 698.661 481.668 690.862 473.995 684.401 469.708 C 669.875 460.071 629.964 437.076 613.936 435.691 C 601.517 428.763 589.235 421.591 577.097 414.181 z"/>
<path transform="translate(0,0)" fill="rgb(94,172,77)" d="M 1336.61 486.216 C 1336.75 482.121 1336.53 473.448 1338.69 470.499 C 1343.97 463.318 1351.82 458.078 1358.99 453.111 C 1394.02 428.816 1423.38 421.848 1463.97 413.689 C 1451.3 421.288 1439.48 428.444 1426.5 435.584 C 1392.51 462.715 1357.58 494.231 1333.87 531.245 C 1334.12 525.371 1335.52 489.553 1336.61 486.216 z"/>
<path transform="translate(0,0)" fill="rgb(168,204,117)" d="M 1336.61 486.216 C 1336.75 482.121 1336.53 473.448 1338.69 470.499 C 1343.97 463.318 1351.82 458.078 1358.99 453.111 C 1394.02 428.816 1423.38 421.848 1463.97 413.689 C 1451.3 421.288 1439.48 428.444 1426.5 435.584 C 1412.38 438.523 1399.53 444.773 1387.1 451.881 C 1377.07 457.614 1367.16 463.347 1357.84 470.186 C 1351.07 475.149 1344.78 480.844 1338.59 486.507 C 1337.93 486.41 1337.27 486.313 1336.61 486.216 z"/>
<path transform="translate(0,0)" fill="rgb(53,108,103)" d="M 1338.76 637.179 C 1353.78 642.291 1384.81 675.244 1396.26 688.265 C 1389.82 688.176 1385.63 687.934 1379.24 687.177 C 1363.85 686.175 1338.13 681.947 1322.79 679.063 C 1330.84 664.322 1335.3 653.465 1338.76 637.179 z"/>
<path transform="translate(0,0)" fill="rgb(53,108,103)" d="M 701.378 636.737 C 707.594 654.086 709.697 662.678 718.41 679.55 C 701.49 683.332 679.546 685.708 662.236 687.765 L 646.2 689.42 C 661.971 667.66 679.908 652.879 701.378 636.737 z"/>
<path transform="translate(0,0)" fill="rgb(39,23,41)" d="M 602.255 773.991 C 607.498 773.208 613.196 773.936 617.071 777.596 C 609.186 778.823 607.029 780.281 602.255 773.991 z"/>
<path transform="translate(0,0)" fill="rgb(84,61,91)" d="M 1424.61 958.013 C 1425.41 963.483 1426.9 971.437 1426.48 976.732 C 1425.41 973.052 1423 965.503 1422.41 962.054 L 1424.61 958.013 z"/>
<path transform="translate(0,0)" fill="rgb(39,23,41)" d="M 1369.46 86.0295 L 1373.01 87.0033 C 1375.6 90.5161 1374.79 89.13 1375.44 94.2497 C 1372.4 92.9338 1370.39 89.072 1369.46 86.0295 z"/>
<path transform="translate(0,0)" fill="rgb(84,61,91)" d="M 617.501 967.625 C 616.854 970.481 616.56 973.095 614.902 975.437 C 613.856 972.267 614.829 968.866 615.388 965.431 L 617.501 967.625 z"/>
<path transform="translate(0,0)" fill="rgb(39,23,41)" d="M 568.603 429.22 L 569.643 429.616 L 569.472 432.709 L 568.067 432.548 L 568.603 429.22 z"/>
</svg>