<svg version="1.1" xmlns="http://www.w3.org/2000/svg" style="display: block;" viewBox="0 0 2048 2048" width="1024" height="1024" preserveAspectRatio="none">
<defs>
	<linearGradient id="Gradient1" gradientUnits="userSpaceOnUse" x1="1933.29" y1="1158.08" x2="1680.93" y2="1224.12">
		<stop class="stop0" offset="0" stop-opacity="1" stop-color="rgb(34,99,71)"/>
		<stop class="stop1" offset="1" stop-opacity="1" stop-color="rgb(36,107,107)"/>
	</linearGradient>
</defs>
<path transform="translate(0,0)" fill="rgb(15,23,42)" d="M 839.959 514.079 C 873.228 412.024 902.756 307.599 966.583 219.286 C 979.882 200.885 1007.59 164.419 1033.45 176.859 C 1078.59 198.573 1109.87 266.543 1133.26 309.564 C 1164.52 373.058 1186.23 443.923 1205.04 511.275 C 1215.52 516.078 1228.41 519.976 1239.55 523.856 C 1255.14 529.309 1270.61 535.116 1285.93 541.273 C 1327.61 558.209 1368.79 575.561 1407.73 598.181 C 1413.99 601.814 1420.6 605.975 1426.95 609.339 C 1479.16 569.509 1526.43 523.957 1572.21 477.159 C 1578.33 470.9 1584.59 464.467 1591.08 458.592 C 1602.09 446.606 1617.63 431.913 1629.46 419.979 C 1654.34 394.886 1673.44 374.937 1696.71 349.07 C 1726.9 315.522 1784.04 229.787 1830.38 228.787 C 1841.11 228.536 1851.45 232.766 1858.92 240.46 C 1881.22 263.249 1879.53 332.162 1878.53 363.435 C 1874.82 479.174 1845.84 601.704 1796.25 706.326 C 1773.27 754.811 1744.3 800.71 1714.95 845.512 C 1699.68 868.819 1684.51 892.464 1668.1 914.99 C 1677.09 943.117 1684.49 975.286 1690.41 1004.27 C 1693.39 1018.8 1694.61 1034.79 1697.7 1049.1 C 1781.67 996.973 1865.98 950.81 1966.47 942.461 C 1980.85 941.267 2020.91 936.126 2032.96 944.875 C 2052.89 959.338 2026.23 994.182 2016.36 1010.31 C 2005.4 1028.41 1994.32 1046.43 1983.11 1064.38 C 1968.27 1087.8 1899.53 1186.95 1913.21 1212.45 C 1918.63 1222.54 1929.46 1231.03 1937.83 1238.69 C 1957.92 1257.06 2011.34 1301 2023.48 1320.43 C 2026.99 1326.06 2029.79 1333.38 2027.85 1340.05 C 2023.23 1356.02 1995.03 1367.87 1980.74 1375.04 C 1946.83 1392.08 1862.34 1418.65 1840.34 1444.41 C 1840.92 1463.91 1845.64 1477.27 1849.64 1497.83 C 1854.38 1522.11 1878.26 1579.8 1863.75 1600.82 C 1858.67 1608.17 1821.38 1602.83 1811.36 1601.57 L 1711.25 1588.45 C 1692.11 1585.99 1667.64 1583.61 1649.09 1580.23 C 1625.03 1609.77 1598.82 1638.09 1569.76 1662.79 C 1458.47 1757.35 1283.72 1834.58 1140.6 1862.61 C 1117.99 1867.04 1094.03 1869.68 1071.09 1872.01 C 1019.84 1877.23 965.857 1874.35 915.199 1865.09 C 787.396 1841.72 593.77 1758.34 493.182 1676.21 C 474.117 1660.64 455.275 1643.97 438.8 1625.66 C 425.436 1610.81 414.506 1593.92 398.844 1581.36 L 269.513 1597.55 C 246.668 1600.42 223.48 1603.9 200.556 1605.15 C 190.689 1605.69 181.121 1599.31 180.441 1588.92 C 177.502 1544.04 204.911 1492.61 206.794 1449.65 C 206.679 1449.36 206.569 1449.06 206.45 1448.77 C 197.263 1426.53 122.196 1396.88 100.047 1387.97 C 81.2351 1380.4 22.8792 1361.55 15.7588 1345.04 C 13.6011 1340.03 14.5642 1334.3 16.6422 1329.45 C 26.4239 1306.59 87.3614 1254.12 108.832 1234.46 C 117.23 1226.77 128.282 1218.78 134.464 1209.27 C 137.443 1204.68 138.695 1200.19 136.685 1194.95 C 128.566 1173.8 115.223 1152.57 103.941 1132.91 C 87.5767 1104.4 71.2329 1075.93 53.5508 1048.2 C 42.0908 1030.22 28.9315 1012.51 19.6074 993.295 C 14.1564 982.063 4.02035 961.251 9.25069 948.795 C 10.8081 945.087 13.661 942.603 17.4573 941.346 C 27.1518 938.136 40.079 939.562 50.2428 939.889 C 118.286 942.076 200.489 964.209 260.328 996.831 C 272.118 1003.26 284.352 1009.36 295.755 1016.44 C 312.961 1027.12 329.851 1041.05 348.985 1047.96 C 353.354 1036.11 356.341 1005.84 359.231 991.778 C 364.409 966.596 370.854 944.292 377.968 919.565 C 366.492 898.453 347.809 873.455 334.242 852.876 C 312.023 819.441 291.435 784.951 272.548 749.527 C 206.193 624.853 170.978 485.978 169.909 344.749 C 169.856 313.998 165.554 249.656 199.32 232.067 C 219.321 221.647 249.416 237.222 263.491 251.486 C 290.693 276.581 314.105 305.487 338.289 333.398 C 368.655 368.177 399.713 402.345 431.447 435.88 C 479.203 485.654 529.829 535.625 582.82 579.839 C 592.602 588.001 610.65 603.331 620.635 610.126 C 635.948 602.155 650.283 591.719 665.54 583.747 C 721.172 554.681 779.611 531.338 839.959 514.079 z"/>
<path transform="translate(0,0)" fill="rgb(4,6,11)" d="M 1591.08 458.592 C 1602.09 446.606 1617.63 431.913 1629.46 419.979 C 1629.65 427.826 1628.29 426.402 1622.43 433.211 C 1617.78 438.617 1597.34 457.804 1591.08 458.592 z"/>
<path transform="translate(0,0)" fill="rgb(96,177,85)" d="M 1218.01 554.905 C 1258.02 569.014 1296.24 581.855 1334.33 599.634 C 1508.71 681.03 1634.57 837.397 1658.88 1030.33 C 1660.13 1040.29 1661.78 1051.75 1662.1 1061.8 C 1671.54 1121.22 1657.39 1189.01 1658.1 1249.36 C 1658.46 1279.77 1662.18 1297.64 1668.56 1327.01 C 1676.71 1375.86 1679.48 1428.95 1662.95 1476.6 C 1655.58 1497.84 1637.29 1529.72 1625.48 1549.2 C 1617.77 1563.62 1606.91 1576.56 1596.37 1588.98 C 1530.92 1666.12 1437.81 1715.95 1347.49 1758 C 1305.75 1777.44 1261.81 1793.11 1217.81 1806.51 C 1057.9 1855.21 938.731 1847.62 782.563 1790.42 C 671.219 1749.64 530.835 1681.98 452.732 1590.69 C 441.854 1577.97 429.48 1563.61 422.415 1548.39 C 411.971 1532.7 398.461 1512.13 391.307 1494.95 C 369.188 1441.85 369.442 1380.52 379.564 1324.93 C 381.09 1311.26 384.994 1297.61 386.876 1283.98 C 396.133 1216.98 378.583 1150.1 383.276 1083.16 C 383.908 1074.14 384.63 1062.02 386.615 1053.27 C 395.677 935.436 448.825 817.081 529.718 731.65 C 592.76 665.072 667.782 618.445 752.595 584.308 C 778.814 573.755 803.011 563.696 830.274 556.216 C 829.928 572.186 829.636 587.086 830.105 603.032 C 841.175 698.494 872.983 769.759 930.591 847.123 C 946.267 868.174 996.655 936.054 1024.99 932.611 C 1054.98 928.967 1093.68 879.727 1111.46 856.695 C 1155.37 798.136 1192.36 734.067 1208.95 662.297 C 1213.6 642.159 1215.38 624.096 1217.74 603.889 C 1218.27 586.755 1218.59 572.003 1218.01 554.905 z"/>
<path transform="translate(0,0)" fill="rgb(255,217,102)" d="M 490.048 1495.6 C 508.059 1513.64 533.213 1486.61 550.531 1494.61 C 555.688 1499.88 562.498 1513.44 565.785 1519.33 C 602.186 1584.6 680.973 1642.25 757.476 1641.79 C 815.631 1641.45 835.354 1648.56 885.244 1678.42 C 927.017 1703.43 983.444 1725.76 1032.26 1723.06 C 1102.47 1721.71 1156.43 1675.53 1218.61 1650.4 C 1246.03 1639.32 1276.52 1644.66 1304.48 1641.87 C 1374.82 1634.84 1436.99 1585.87 1475.75 1528.74 C 1485.91 1513.77 1486.42 1500.5 1503.4 1492.06 C 1517.24 1495.62 1547.73 1510.42 1557.09 1497.4 L 1558.43 1496.48 C 1568.06 1499.47 1593.61 1513.64 1600.68 1520.05 L 1601.36 1520.31 C 1609.25 1529.54 1617.68 1540.4 1625.48 1549.2 C 1617.77 1563.62 1606.91 1576.56 1596.37 1588.98 C 1530.92 1666.12 1437.81 1715.95 1347.49 1758 C 1305.75 1777.44 1261.81 1793.11 1217.81 1806.51 C 1057.9 1855.21 938.731 1847.62 782.563 1790.42 C 671.219 1749.64 530.835 1681.98 452.732 1590.69 C 441.854 1577.97 429.48 1563.61 422.415 1548.39 L 422.831 1547.85 C 429.709 1538.72 438.543 1529.47 446.289 1520.93 L 447.055 1520.59 C 452.164 1514.36 482.054 1496.12 490.048 1495.6 z"/>
<path transform="translate(0,0)" fill="rgb(255,193,7)" d="M 1600.68 1520.05 L 1601.36 1520.31 C 1609.25 1529.54 1617.68 1540.4 1625.48 1549.2 C 1617.77 1563.62 1606.91 1576.56 1596.37 1588.98 C 1530.92 1666.12 1437.81 1715.95 1347.49 1758 C 1305.75 1777.44 1261.81 1793.11 1217.81 1806.51 C 1057.9 1855.21 938.731 1847.62 782.563 1790.42 C 671.219 1749.64 530.835 1681.98 452.732 1590.69 C 441.854 1577.97 429.48 1563.61 422.415 1548.39 L 422.831 1547.85 C 429.709 1538.72 438.543 1529.47 446.289 1520.93 L 447.055 1520.59 C 462.804 1538.56 478.633 1556.84 496.054 1573.22 C 618.025 1687.91 873.936 1790.54 1041.59 1785.24 C 1161.98 1781.43 1292.94 1731.27 1399.13 1676.77 C 1435.88 1657.91 1472.98 1637.63 1505.88 1612.52 C 1523.33 1599.21 1540.9 1584.94 1556.25 1569.25 C 1571.65 1553.51 1585.57 1536.13 1600.68 1520.05 z"/>
<path transform="translate(0,0)" fill="rgb(15,23,42)" d="M 490.048 1495.6 C 504.314 1475.68 518.733 1454.97 545.825 1450.59 C 567.92 1447.01 608.814 1458.59 614.94 1484.02 C 615.357 1485.75 614.693 1486.48 614.039 1488.1 C 608.069 1491.43 588.954 1482.17 582.18 1479.4 C 611.168 1526.61 663.746 1583.66 719.605 1595.51 C 755.066 1603.04 798.838 1598.68 831.524 1609.69 C 914.34 1637.57 977.861 1704.74 1072.95 1674.99 C 1124.48 1658.87 1165.69 1624.56 1217.1 1609.39 C 1275.24 1594.28 1324.32 1610.5 1379.62 1573.21 C 1419.57 1546.27 1437.57 1516.31 1466.5 1481.09 C 1460.78 1482.67 1454.99 1484.39 1449.23 1485.8 C 1442.72 1487.39 1435.89 1490.38 1432.7 1482.39 C 1434.62 1461.4 1482.29 1447.82 1500.64 1450.8 C 1528.98 1455.4 1543.79 1474.85 1557.09 1497.4 C 1547.73 1510.42 1517.24 1495.62 1503.4 1492.06 C 1486.42 1500.5 1485.91 1513.77 1475.75 1528.74 C 1436.99 1585.87 1374.82 1634.84 1304.48 1641.87 C 1276.52 1644.66 1246.03 1639.32 1218.61 1650.4 C 1156.43 1675.53 1102.47 1721.71 1032.26 1723.06 C 983.444 1725.76 927.017 1703.43 885.244 1678.42 C 835.354 1648.56 815.631 1641.45 757.476 1641.79 C 680.973 1642.25 602.186 1584.6 565.785 1519.33 C 562.498 1513.44 555.688 1499.88 550.531 1494.61 C 533.213 1486.61 508.059 1513.64 490.048 1495.6 z"/>
<path transform="translate(0,0)" fill="rgb(172,220,126)" d="M 386.615 1053.27 C 395.677 935.436 448.825 817.081 529.718 731.65 C 592.76 665.072 667.782 618.445 752.595 584.308 C 778.814 573.755 803.011 563.696 830.274 556.216 C 829.928 572.186 829.636 587.086 830.105 603.032 C 819.148 609.342 799.094 615.773 786.81 620.065 C 617.333 679.28 462.859 812.208 411.688 988.364 C 408.089 1000.76 394.941 1048.43 388.524 1055.18 L 387.341 1054.98 L 386.615 1053.27 z"/>
<path transform="translate(0,0)" fill="rgb(172,220,126)" d="M 1218.01 554.905 C 1258.02 569.014 1296.24 581.855 1334.33 599.634 C 1508.71 681.03 1634.57 837.397 1658.88 1030.33 C 1660.13 1040.29 1661.78 1051.75 1662.1 1061.8 C 1662.13 1065.94 1662.86 1066.75 1661.06 1069.67 C 1653.27 1064.79 1644.02 1015.82 1641.09 1004.05 C 1634.78 978.923 1626.4 954.365 1616.05 930.623 C 1557.66 793.447 1423.37 681.452 1286.34 628.548 C 1263.67 619.797 1240.18 612.927 1217.74 603.889 C 1218.27 586.755 1218.59 572.003 1218.01 554.905 z"/>
<path transform="translate(0,0)" fill="rgb(36,107,107)" d="M 1668.56 1327.01 C 1676.71 1375.86 1679.48 1428.95 1662.95 1476.6 C 1655.58 1497.84 1637.29 1529.72 1625.48 1549.2 C 1617.68 1540.4 1609.25 1529.54 1601.36 1520.31 C 1631.59 1480.56 1648.68 1434.09 1657.42 1385.36 C 1659.33 1374.75 1662.56 1332.71 1668.56 1327.01 z"/>
<path transform="translate(0,0)" fill="rgb(36,107,107)" d="M 379.564 1324.93 C 385.335 1340.97 387.153 1370.64 390.026 1388 C 398.303 1438 417.446 1480.1 446.289 1520.93 C 438.543 1529.47 429.709 1538.72 422.831 1547.85 L 422.415 1548.39 C 411.971 1532.7 398.461 1512.13 391.307 1494.95 C 369.188 1441.85 369.442 1380.52 379.564 1324.93 z"/>
<path transform="translate(0,0)" fill="rgb(15,23,42)" d="M 457.947 1216.85 C 410.948 1108.99 469.781 938.104 589.285 904.824 C 654.823 886.572 722.538 921.873 760.228 974.956 C 803.775 1036.29 827.034 1123.21 816.651 1197.61 C 819.452 1235.39 821.818 1307.72 800.703 1340.93 C 792.087 1354.48 749.367 1368.92 733.388 1368.59 C 698.043 1374.61 645.109 1372.76 609.834 1364.61 C 593.373 1362.79 556.85 1345.8 542.178 1336.91 C 485.3 1302.47 473.042 1278.04 457.947 1216.85 z"/>
<path transform="translate(0,0)" fill="rgb(86,30,70)" d="M 557.699 1106.02 C 559.638 1106.4 570.012 1103.11 573.741 1102.24 C 576.942 1103.43 582.782 1105.13 584.904 1107.4 C 585.405 1109.72 585.285 1111.21 586.652 1112.68 C 590.692 1136.77 599.139 1151.83 624.73 1156.99 C 625.659 1173.71 625.553 1187.01 627.82 1203.91 C 635.809 1244.97 650.145 1319.76 709.242 1309.25 C 716.224 1308 723.718 1303.9 727.573 1297.76 C 731.446 1303.74 737.773 1307.71 744.85 1308.58 C 751.928 1309.46 759.029 1307.15 764.243 1302.29 C 770.242 1296.69 772.98 1288.43 771.512 1280.35 C 770.043 1272.28 764.569 1265.51 756.984 1262.39 C 766.707 1230.11 772.72 1188.35 768.824 1154.77 C 788.094 1192.16 790.417 1278.77 781.379 1320.36 C 777.784 1336.9 762.572 1347.93 748.66 1355.68 C 737.41 1361.96 725.364 1362.35 715.617 1366.67 C 710.028 1367.6 702.264 1369.12 696.792 1369.39 C 693.478 1369.08 684.472 1369.25 680.439 1369.21 C 662.989 1369 651.062 1367.84 634.233 1363.16 C 631.784 1360.75 621.383 1353.52 617.406 1350.15 C 600.432 1335.85 586.066 1318.72 574.946 1299.51 C 541.437 1240.28 538.859 1170.49 557.026 1106 L 557.699 1106.02 z"/>
<path transform="translate(0,0)" fill="rgb(212,94,149)" d="M 764.243 1302.29 C 763.634 1311.62 765.845 1319.1 761.827 1328.72 C 758.151 1337.52 745.573 1348.01 736.398 1351.04 C 705.806 1361.15 684.811 1359.86 655.89 1348.39 C 625.478 1336.33 601.563 1314.51 589.114 1284.33 C 583.136 1269.81 583.289 1253.48 589.537 1239.08 C 595.992 1224.55 613.008 1209.36 627.82 1203.91 C 635.809 1244.97 650.145 1319.76 709.242 1309.25 C 716.224 1308 723.718 1303.9 727.573 1297.76 C 731.446 1303.74 737.773 1307.71 744.85 1308.58 C 751.928 1309.46 759.029 1307.15 764.243 1302.29 z"/>
<path transform="translate(0,0)" fill="rgb(36,107,107)" d="M 457.947 1216.85 C 410.948 1108.99 469.781 938.104 589.285 904.824 C 654.823 886.572 722.538 921.873 760.228 974.956 C 803.775 1036.29 827.034 1123.21 816.651 1197.61 C 806.925 1121.12 779.225 1039.18 716.472 990.342 C 687.773 968.006 648.422 954.716 612.485 960.009 C 495.135 977.291 450.37 1094.65 457.178 1200.27 C 457.514 1205.49 457.87 1211.62 457.947 1216.85 z"/>
<path transform="translate(0,0)" fill="rgb(248,250,252)" d="M 557.026 1106 C 538.859 1170.49 541.437 1240.28 574.946 1299.51 C 586.066 1318.72 600.432 1335.85 617.406 1350.15 C 621.383 1353.52 631.784 1360.75 634.233 1363.16 C 589.992 1353.86 560.47 1337.26 527.421 1305.52 C 493.296 1272.76 491.567 1229.87 492.012 1184.8 C 491.819 1179.84 491.961 1173.87 491.963 1168.82 C 494.521 1168.23 497.633 1168.52 500.316 1168.61 C 517.046 1146.32 528.39 1117.13 557.026 1106 z"/>
<path transform="translate(0,0)" fill="rgb(230,210,240)" d="M 491.963 1168.82 C 494.521 1168.23 497.633 1168.52 500.316 1168.61 C 498.262 1173.02 494.755 1181.31 492.012 1184.8 C 491.819 1179.84 491.961 1173.87 491.963 1168.82 z"/>
<path transform="translate(0,0)" fill="rgb(248,250,252)" d="M 586.652 1112.68 C 587.379 1106.99 587.313 1102.7 588.777 1097.02 C 597.999 1061.22 627.349 1042.37 659.876 1066.29 C 687.777 1095.05 683.794 1145.72 639.513 1156.94 C 636.547 1157.69 628.192 1157.11 624.73 1156.99 C 599.139 1151.83 590.692 1136.77 586.652 1112.68 z"/>
<path transform="translate(0,0)" fill="rgb(200,180,220)" d="M 491.963 1168.82 C 492.753 1161.04 493.787 1153.29 495.064 1145.58 C 504.636 1086.44 541.541 1020.56 602.737 1004.52 C 621.472 999.614 634.168 1000.73 652.885 1003.89 C 644.434 1007.77 637.224 1010.66 628.845 1015.08 C 596.418 1032.18 567.305 1070.72 557.699 1106.02 L 557.026 1106 C 528.39 1117.13 517.046 1146.32 500.316 1168.61 C 497.633 1168.52 494.521 1168.23 491.963 1168.82 z"/>
<path transform="translate(0,0)" fill="rgb(60,20,80)" d="M 652.885 1003.89 C 675.061 1007.08 690.993 1020.78 707.039 1035.78 C 714.993 1043.21 721.003 1052.85 728.897 1060.32 C 710.28 1052.37 672.462 1045.42 659.876 1066.29 C 627.349 1042.37 597.999 1061.22 588.777 1097.02 C 587.313 1102.7 587.379 1106.99 586.652 1112.68 C 585.285 1111.21 585.405 1109.72 584.904 1107.4 C 582.782 1105.13 576.942 1103.43 573.741 1102.24 C 570.012 1103.11 559.638 1106.4 557.699 1106.02 C 567.305 1070.72 596.418 1032.18 628.845 1015.08 C 637.224 1010.66 644.434 1007.77 652.885 1003.89 z"/>
<path transform="translate(0,0)" fill="rgb(248,250,252)" d="M 727.573 1297.76 C 721.849 1288.91 722.539 1277.36 729.278 1269.26 C 736.017 1261.16 747.24 1258.37 756.984 1262.39 C 764.569 1265.51 770.043 1272.28 771.512 1280.35 C 772.98 1288.43 770.242 1296.69 764.243 1302.29 C 759.029 1307.15 751.928 1309.46 744.85 1308.58 C 737.773 1307.71 731.446 1303.74 727.573 1297.76 z"/>
<path transform="translate(0,0)" fill="rgb(4,6,11)" d="M 609.834 1364.61 C 616.138 1363.52 633.942 1366.92 640.952 1367.94 C 649.564 1369.18 689.966 1371.94 696.792 1369.39 C 702.264 1369.12 710.028 1367.6 715.617 1366.67 L 713.541 1368.19 C 714.837 1370.19 727.982 1366.94 733.388 1368.59 C 698.043 1374.61 645.109 1372.76 609.834 1364.61 z"/>
<path transform="translate(0,0)" fill="rgb(15,23,42)" d="M 1231.11 1199.1 C 1219.21 1177.22 1233.97 1097.49 1241.79 1071.28 C 1261.11 1006.55 1294.88 951.04 1355.47 917.622 C 1442.23 869.763 1532.97 925.838 1574.41 1006.06 C 1603.3 1061.99 1614.84 1138.08 1597.09 1199.29 C 1595.91 1203.11 1593.58 1209.98 1591.73 1213.43 C 1576.05 1277.1 1565.35 1297.86 1506.3 1336.56 C 1490.95 1346.61 1458.44 1360.49 1440.37 1363.56 C 1406.82 1373.25 1363.12 1373.44 1328.19 1370.22 C 1323.74 1369.81 1307.89 1367.81 1304.2 1366.27 C 1224.96 1351.37 1231.73 1305.12 1229.35 1237 C 1228.9 1224.21 1230.17 1211.87 1231.11 1199.1 z"/>
<path transform="translate(0,0)" fill="rgb(86,30,70)" d="M 1324.2 1057.37 C 1339.43 1032.41 1367.99 1007.86 1397.59 1003.14 C 1405.96 1008.01 1415.61 1010.77 1423.84 1015.72 C 1436.23 1023.17 1447.82 1032.87 1457.27 1043.79 C 1473.58 1062.65 1482.18 1085.05 1491.27 1107.85 C 1510.14 1173.86 1505 1237.19 1473.17 1298.99 C 1457.79 1328.85 1437.8 1342.1 1413.79 1363.31 C 1398.35 1368.17 1386.76 1366.68 1376.23 1369.66 C 1360.7 1370.43 1346.87 1370.56 1331.43 1368.01 C 1308.06 1362.16 1276.7 1351.58 1268.82 1327.06 C 1256.43 1288.5 1260.79 1194.88 1275.97 1158.52 C 1275.84 1179.8 1279.76 1245.81 1288.94 1262.4 C 1272.51 1274.96 1272.67 1287.97 1283.06 1304.82 C 1297.34 1313.75 1309.64 1309.09 1320.53 1298.27 C 1334.57 1319.87 1363.42 1317.88 1380.65 1300.8 C 1388.17 1293.36 1392.75 1286.66 1398.24 1277.54 C 1411.95 1254.74 1419.35 1230.77 1420.12 1204.18 C 1419.77 1197.04 1422.91 1167.26 1423.48 1156.88 C 1420.66 1157.05 1417.83 1157.14 1415.01 1157.15 C 1378.95 1157.09 1359.63 1116.41 1374.41 1085.67 C 1378.53 1077.1 1382.87 1071.93 1389.81 1065.52 C 1372.53 1044.9 1346.3 1051.62 1324.2 1057.37 z"/>
<path transform="translate(0,0)" fill="rgb(212,94,149)" d="M 1420.12 1204.18 C 1434.42 1207.98 1448.95 1221.02 1456.35 1233.89 C 1469.82 1257.31 1462.46 1276.87 1450.55 1297.44 C 1424.27 1342.8 1373.18 1371.15 1321.15 1354.17 C 1298.06 1346.63 1276.38 1333.55 1283.06 1304.82 C 1297.34 1313.75 1309.64 1309.09 1320.53 1298.27 C 1334.57 1319.87 1363.42 1317.88 1380.65 1300.8 C 1388.17 1293.36 1392.75 1286.66 1398.24 1277.54 C 1411.95 1254.74 1419.35 1230.77 1420.12 1204.18 z"/>
<path transform="translate(0,0)" fill="rgb(248,250,252)" d="M 1389.81 1065.52 C 1400.62 1058.44 1412.14 1054.04 1425.04 1057.6 C 1473.76 1071.02 1475.99 1146.61 1423.48 1156.88 C 1420.66 1157.05 1417.83 1157.14 1415.01 1157.15 C 1378.95 1157.09 1359.63 1116.41 1374.41 1085.67 C 1378.53 1077.1 1382.87 1071.93 1389.81 1065.52 z"/>
<path transform="translate(0,0)" fill="rgb(36,107,107)" d="M 1231.11 1199.1 C 1219.21 1177.22 1233.97 1097.49 1241.79 1071.28 C 1261.11 1006.55 1294.88 951.04 1355.47 917.622 C 1442.23 869.763 1532.97 925.838 1574.41 1006.06 C 1603.3 1061.99 1614.84 1138.08 1597.09 1199.29 C 1595.91 1203.11 1593.58 1209.98 1591.73 1213.43 C 1591.08 1203.18 1592.77 1190.06 1592.51 1179.02 C 1590.36 1084.43 1548.98 979.674 1445.05 961.493 C 1405.26 954.534 1366.02 967.231 1333.38 989.856 C 1279.91 1027.11 1253.59 1093.91 1238.45 1154.97 C 1234.82 1169.64 1233.61 1184.34 1231.11 1199.1 z"/>
<path transform="translate(0,0)" fill="rgb(248,250,252)" d="M 1491.27 1107.85 C 1506.12 1109.62 1532.03 1147.44 1538.15 1160.53 C 1541.33 1167.33 1554.07 1185.22 1556.01 1191.22 C 1555.54 1240.64 1553.38 1272.25 1516.87 1308.04 C 1488.53 1335.98 1452.75 1355.17 1413.79 1363.31 C 1437.8 1342.1 1457.79 1328.85 1473.17 1298.99 C 1505 1237.19 1510.14 1173.86 1491.27 1107.85 z"/>
<path transform="translate(0,0)" fill="rgb(200,180,220)" d="M 1397.59 1003.14 C 1502.42 983.023 1557.83 1103.48 1556.01 1191.22 C 1554.07 1185.22 1541.33 1167.33 1538.15 1160.53 C 1532.03 1147.44 1506.12 1109.62 1491.27 1107.85 C 1482.18 1085.05 1473.58 1062.65 1457.27 1043.79 C 1447.82 1032.87 1436.23 1023.17 1423.84 1015.72 C 1415.61 1010.77 1405.96 1008.01 1397.59 1003.14 z"/>
<path transform="translate(0,0)" fill="rgb(248,250,252)" d="M 1288.94 1262.4 C 1313.4 1256.59 1331.77 1277.49 1320.53 1298.27 C 1309.64 1309.09 1297.34 1313.75 1283.06 1304.82 C 1272.67 1287.97 1272.51 1274.96 1288.94 1262.4 z"/>
<path transform="translate(0,0)" fill="rgb(4,6,11)" d="M 1376.23 1369.66 C 1387.72 1369.65 1392.37 1369.92 1404.14 1368.68 C 1412.34 1367.82 1434.88 1362.68 1440.37 1363.56 C 1406.82 1373.25 1363.12 1373.44 1328.19 1370.22 C 1323.74 1369.81 1307.89 1367.81 1304.2 1366.27 L 1305.62 1364.93 C 1310.42 1365.89 1327.54 1369.48 1331.43 1368.01 C 1346.87 1370.56 1360.7 1370.43 1376.23 1369.66 z"/>
<path transform="translate(0,0)" fill="rgb(172,220,126)" d="M 882.374 1351.68 C 882.614 1350.62 882.791 1349.52 883.419 1348.65 C 902.397 1322.51 951.638 1300.97 980.469 1294.73 C 1031.12 1283.79 1086.95 1291.14 1130.35 1319.1 C 1139.06 1324.71 1156.64 1337.22 1158.86 1347.46 C 1163.62 1351.47 1185.52 1364.4 1179.18 1371.07 C 1164.99 1375.32 1116.83 1357.32 1097.96 1353.99 C 1077.49 1350.54 1056.79 1348.63 1036.03 1348.28 C 996.686 1347.69 955.218 1353.24 916.937 1362.18 C 899.935 1366.15 873.049 1374.67 856.825 1376.47 C 862.293 1370 880.129 1355.09 882.374 1351.68 z"/>
<path transform="translate(0,0)" fill="rgb(34,99,71)" d="M 882.374 1351.68 C 882.614 1350.62 882.791 1349.52 883.419 1348.65 C 902.397 1322.51 951.638 1300.97 980.469 1294.73 C 1031.12 1283.79 1086.95 1291.14 1130.35 1319.1 C 1139.06 1324.71 1156.64 1337.22 1158.86 1347.46 C 1071.43 1301.64 968.621 1304.29 882.374 1351.68 z"/>
<path transform="translate(0,0)" fill="rgb(15,23,42)" d="M 831.94 1474.85 C 831.72 1462.36 831.088 1448.49 841.341 1438.93 C 859.85 1421.69 883.454 1441.13 897.018 1454.64 C 909.022 1466.59 934.943 1515.33 921.582 1529.82 C 913.353 1532.5 909.239 1526.09 903.845 1520.55 C 902.033 1521.71 901.439 1521.94 899.484 1522.85 C 881.745 1522.9 835.388 1495.05 831.94 1474.85 z"/>
<path transform="translate(0,0)" fill="rgb(34,99,71)" d="M 831.94 1474.85 C 846.27 1481.37 860.389 1473.35 872.462 1483.73 C 884.514 1494.09 894.235 1507.87 903.845 1520.55 C 902.033 1521.71 901.439 1521.94 899.484 1522.85 C 881.745 1522.9 835.388 1495.05 831.94 1474.85 z"/>
<path transform="translate(0,0)" fill="rgb(15,23,42)" d="M 1137.78 1526.5 C 1134.05 1528.08 1133.8 1528.13 1129.8 1528.88 C 1116.94 1524.75 1125.66 1500.05 1128.43 1490.74 C 1136.63 1463.14 1168.87 1425.82 1200.99 1436.92 C 1222.17 1444.23 1218.09 1465.84 1210.62 1481.84 C 1200.13 1504.1 1161.38 1522.66 1137.78 1526.5 z"/>
<path transform="translate(0,0)" fill="rgb(34,99,71)" d="M 1189.2 1477.46 C 1195.71 1479.27 1204.07 1482.09 1210.62 1481.84 C 1200.13 1504.1 1161.38 1522.66 1137.78 1526.5 C 1152.65 1506.59 1164.74 1487.29 1189.2 1477.46 z"/>
<path transform="translate(0,0)" fill="rgb(172,220,126)" d="M 1011.03 1369.41 C 1067.59 1367.49 1084.02 1394.37 1017.23 1403.77 C 953.243 1409.67 942.968 1375.4 1011.03 1369.41 z"/>
<path transform="translate(0,0)" fill="rgb(51,166,166)" d="M 1024.15 209.637 C 1038.49 223.602 1064.75 262.189 1074.91 279.776 C 1120.98 353.361 1173.65 486.643 1179.57 573.01 C 1181.27 598.508 1179.19 624.117 1173.4 649.006 C 1159.18 710.769 1129.45 764.205 1093.04 815.416 C 1073.23 843.272 1055.34 869.15 1025.6 887.546 L 1024.14 888.448 C 984.694 866.092 947.835 804.954 923.914 766.573 C 916.246 754.269 901.938 725.683 898.153 711.784 C 887.578 691.173 880.96 667.98 876.334 645.333 C 871.858 626.875 870.042 610.621 870.226 591.553 C 870.411 572.413 872.107 547.225 875.589 528.777 C 892.689 438.176 958.651 274.906 1024.15 209.637 z"/>
<path transform="translate(0,0)" fill="rgb(36,107,107)" d="M 1074.91 279.776 C 1120.98 353.361 1173.65 486.643 1179.57 573.01 C 1181.27 598.508 1179.19 624.117 1173.4 649.006 C 1159.18 710.769 1129.45 764.205 1093.04 815.416 C 1073.23 843.272 1055.34 869.15 1025.6 887.546 L 1024.14 888.448 C 984.694 866.092 947.835 804.954 923.914 766.573 C 916.246 754.269 901.938 725.683 898.153 711.784 C 902.92 714.856 910.077 724.506 914.626 729.167 C 943.118 758.357 980.99 794.007 1023.92 795.221 L 1024.28 554.841 C 1036.9 575.805 1049.51 595.975 1061.21 617.551 C 1073.27 639.808 1081.19 666.942 1092.86 688.557 C 1132.76 598.751 1120.07 452.985 1092.72 360.972 C 1089.71 349.466 1088.84 336.477 1086.45 324.418 C 1083.91 311.672 1075.99 291.71 1074.91 279.776 z"/>
<path transform="translate(0,0)" fill="rgb(80,200,200)" d="M 1024.15 209.637 C 1038.49 223.602 1064.75 262.189 1074.91 279.776 C 1075.99 291.71 1083.91 311.672 1086.45 324.418 C 1088.84 336.477 1089.71 349.466 1092.72 360.972 C 1088.33 362.053 1090.23 362.359 1086.68 361.142 C 1079.86 353.186 1073.84 331.679 1069.14 322.074 C 1038.08 258.842 1029.67 242.364 990.771 311.273 C 964.491 357.827 943.616 402.294 923.932 452.663 C 907.146 495.614 895.17 533.43 889.382 580.008 C 886.962 599.487 887.914 630.038 876.334 645.333 C 871.858 626.875 870.042 610.621 870.226 591.553 C 870.411 572.413 872.107 547.225 875.589 528.777 C 892.689 438.176 958.651 274.906 1024.15 209.637 z"/>
<path transform="translate(0,0)" fill="rgb(80,200,200)" d="M 972.025 409.74 L 974.727 410.345 C 988.334 422.998 972.92 474.479 967.375 489.168 C 961.801 503.934 956.449 518.227 940.256 523.052 C 913.79 505.963 953.107 422.486 972.025 409.74 z"/>
<path transform="translate(0,0)" fill="rgb(96,177,85)" d="M 62.6594 992.302 C 78.7932 1000.01 114.592 1027.29 129.982 1039.33 C 151.382 1049.95 177.824 1074.42 195.331 1090.78 C 244.786 1137.01 289.898 1188.54 325.72 1246.13 C 332.626 1257.23 352.49 1285.7 347.157 1298.82 C 344.879 1300.87 344.358 1300.76 340.175 1300.33 C 312.786 1297.51 286.426 1293.34 258.773 1293 C 244.623 1292.82 231.474 1292.76 217.352 1293.39 C 209.9 1293.72 187.78 1296.16 181.657 1295.17 C 144.867 1303.79 104.435 1311.97 68.464 1323.15 C 100.316 1284.81 191.769 1239.57 169.966 1181.78 C 144.851 1115.21 99.8468 1052.78 62.6594 992.302 z"/>
<path transform="translate(0,0)" fill="rgb(36,107,107)" d="M 129.982 1039.33 C 151.382 1049.95 177.824 1074.42 195.331 1090.78 C 244.786 1137.01 289.898 1188.54 325.72 1246.13 C 332.626 1257.23 352.49 1285.7 347.157 1298.82 C 344.879 1300.87 344.358 1300.76 340.175 1300.33 C 312.786 1297.51 286.426 1293.34 258.773 1293 C 244.623 1292.82 231.474 1292.76 217.352 1293.39 C 209.9 1293.72 187.78 1296.16 181.657 1295.17 C 188.762 1291.43 197.85 1289.88 205.585 1287.92 C 223.286 1283.41 259.414 1275.7 274.151 1265.8 C 277.163 1263.78 279.476 1261.8 279.937 1258.08 C 283.136 1232.34 194.213 1115.48 174.043 1090.81 C 160.17 1073.85 143.169 1057.96 130.572 1040.19 C 130.372 1039.9 130.179 1039.62 129.982 1039.33 z"/>
<path transform="translate(0,0)" fill="rgb(96,177,85)" d="M 1910.5 1045.1 C 1933.1 1029.02 1959.35 1004.14 1984.13 991.653 C 1961.17 1035.55 1859.53 1176.15 1872.55 1215.71 C 1879.91 1238.11 1954.99 1300.99 1975.92 1323.39 C 1950.82 1315.96 1926.1 1308.27 1900.57 1302.37 C 1891.44 1300.27 1877.33 1296.18 1868.3 1295.24 C 1843.36 1295.87 1813.72 1291.92 1787.39 1292.93 C 1757.1 1294.1 1728.79 1298.2 1698.53 1300.51 C 1698.23 1294.48 1697.34 1284.38 1699.78 1279.14 C 1705.09 1267.71 1713.77 1255.04 1720.76 1244.46 C 1765.07 1178.1 1818.64 1118.42 1879.85 1067.23 C 1887.73 1060.74 1901.63 1049.01 1910.5 1045.1 z"/>
<path transform="translate(0,0)" fill="url(#Gradient1)" d="M 1698.53 1300.51 C 1698.23 1294.48 1697.34 1284.38 1699.78 1279.14 C 1705.09 1267.71 1713.77 1255.04 1720.76 1244.46 C 1765.07 1178.1 1818.64 1118.42 1879.85 1067.23 C 1887.73 1060.74 1901.63 1049.01 1910.5 1045.1 C 1893.45 1074.91 1877.17 1086.8 1858.34 1111.12 C 1831.86 1145.32 1772.81 1225.78 1760.81 1263.18 C 1784.3 1272.12 1814.93 1277.56 1839.45 1285.33 C 1846.54 1287.58 1862.48 1291.54 1868.3 1295.24 C 1843.36 1295.87 1813.72 1291.92 1787.39 1292.93 C 1757.1 1294.1 1728.79 1298.2 1698.53 1300.51 z"/>
<path transform="translate(0,0)" fill="rgb(255,217,102)" d="M 1531.14 568.397 C 1544.48 574.19 1560.68 580.914 1573.17 588.02 C 1612.75 610.935 1661.58 658.072 1682.14 698.92 C 1699.18 728.473 1705.7 753.443 1713.4 785.847 C 1708.93 796.62 1666.44 861.793 1657.48 871.419 C 1642.97 849.705 1632.13 825.295 1619.08 802.64 C 1616.64 798.411 1613.29 792.848 1611.38 788.433 C 1586.45 742.829 1540.27 692.019 1500.33 659.303 C 1491.79 652.571 1467.43 634.237 1461.3 626.662 C 1468.66 618.635 1522.64 573.503 1531.14 568.397 z"/>
<path transform="translate(0,0)" fill="rgb(255,193,7)" d="M 1682.14 698.92 C 1699.18 728.473 1705.7 753.443 1713.4 785.847 C 1708.93 796.62 1666.44 861.793 1657.48 871.419 C 1642.97 849.705 1632.13 825.295 1619.08 802.64 C 1616.64 798.411 1613.29 792.848 1611.38 788.433 C 1618.32 769.707 1635.47 752.757 1647.9 737.183 C 1653.8 729.788 1674.24 701.489 1682.14 698.92 z"/>
<path transform="translate(0,0)" fill="rgb(255,193,7)" d="M 1531.14 568.397 C 1544.48 574.19 1560.68 580.914 1573.17 588.02 C 1565.49 600.629 1534.76 615.238 1521.91 628.572 C 1509.58 641.377 1509.38 647.094 1500.33 659.303 C 1491.79 652.571 1467.43 634.237 1461.3 626.662 C 1468.66 618.635 1522.64 573.503 1531.14 568.397 z"/>
<path transform="translate(0,0)" fill="rgb(255,217,102)" d="M 517.361 568.256 C 527.544 575.259 580.283 619.827 585.08 628.443 C 584.347 633.517 553.142 655.085 546.336 660.691 C 507.283 693.349 463.542 742.421 437.575 786.81 C 431.297 798.962 398.622 862.414 392.177 866.765 C 381.329 863.102 341.707 798.241 335.485 784.816 C 339.588 755.491 351.615 727.744 365.318 701.701 C 385.352 661.939 435.211 608.576 475.213 588.769 C 489.077 581.841 503.236 574.615 517.361 568.256 z"/>
<path transform="translate(0,0)" fill="rgb(255,193,7)" d="M 365.318 701.701 C 369.231 701.548 371.873 700.363 374.512 703.341 C 385.631 715.885 396.143 729.655 406.323 743.027 C 416.497 756.391 432.187 771.1 437.575 786.81 C 431.297 798.962 398.622 862.414 392.177 866.765 C 381.329 863.102 341.707 798.241 335.485 784.816 C 339.588 755.491 351.615 727.744 365.318 701.701 z"/>
<path transform="translate(0,0)" fill="rgb(255,193,7)" d="M 517.361 568.256 C 527.544 575.259 580.283 619.827 585.08 628.443 C 584.347 633.517 553.142 655.085 546.336 660.691 C 536.152 642.286 528.907 629.281 511.295 616.354 C 499.371 607.601 483.983 600.905 475.213 588.769 C 489.077 581.841 503.236 574.615 517.361 568.256 z"/>
<path transform="translate(0,0)" fill="rgb(255,217,102)" d="M 1639.82 464.38 C 1654.15 466.635 1668.12 470.782 1681.37 476.712 C 1713.13 491.038 1748.72 523.61 1765.93 553.698 C 1775.63 569.316 1796.46 606.64 1791.8 625.823 C 1790.56 630.931 1782.2 651.606 1779.89 656.982 C 1767.28 686.27 1749.32 729.342 1731.81 755.966 C 1728.27 741.224 1707.98 689.334 1700.81 677.01 C 1677.19 633.006 1630.32 585.215 1585.13 564.368 C 1572.55 558.893 1562.57 554.089 1549.35 550.082 L 1603.11 498.114 C 1613.04 488.509 1629.27 471.947 1639.82 464.38 z"/>
<path transform="translate(0,0)" fill="rgb(255,193,7)" d="M 1765.93 553.698 C 1775.63 569.316 1796.46 606.64 1791.8 625.823 C 1790.56 630.931 1782.2 651.606 1779.89 656.982 C 1767.28 686.27 1749.32 729.342 1731.81 755.966 C 1728.27 741.224 1707.98 689.334 1700.81 677.01 C 1715.72 650.384 1730.28 620.137 1745.1 593.106 C 1750.77 582.776 1759.78 562.111 1765.93 553.698 z"/>
<path transform="translate(0,0)" fill="rgb(255,193,7)" d="M 1639.82 464.38 C 1654.15 466.635 1668.12 470.782 1681.37 476.712 C 1676.41 488.751 1625.76 539.229 1612.34 550.208 C 1606.6 554.902 1592.36 560.67 1585.13 564.368 C 1572.55 558.893 1562.57 554.089 1549.35 550.082 L 1603.11 498.114 C 1613.04 488.509 1629.27 471.947 1639.82 464.38 z"/>
<path transform="translate(0,0)" fill="rgb(255,217,102)" d="M 409.997 464.346 C 438.25 493.769 467.481 522.237 497.639 549.704 L 463.005 564.704 C 414.785 589.904 374.925 628.569 348.269 676 C 338.97 691.705 322.809 736.058 317.213 753.805 C 307.92 737.27 298.346 722.307 290.572 704.729 C 279.614 679.952 265.6 653.574 258.117 627.402 C 252.47 607.653 272.698 569.255 282.799 552.824 C 301.873 520.655 334.831 491.109 369.347 476.397 C 382.778 470.589 395.85 467.78 409.997 464.346 z"/>
<path transform="translate(0,0)" fill="rgb(255,193,7)" d="M 282.799 552.824 C 287.39 558.136 290.354 564.314 293.117 570.688 C 307.497 603.869 325.48 634.653 344.081 665.555 C 346.012 668.764 346.72 672.868 348.269 676 C 338.97 691.705 322.809 736.058 317.213 753.805 C 307.92 737.27 298.346 722.307 290.572 704.729 C 279.614 679.952 265.6 653.574 258.117 627.402 C 252.47 607.653 272.698 569.255 282.799 552.824 z"/>
<path transform="translate(0,0)" fill="rgb(255,193,7)" d="M 409.997 464.346 C 438.25 493.769 467.481 522.237 497.639 549.704 L 463.005 564.704 C 453.665 559.036 444.15 554.881 434.59 547.856 C 417.29 535.141 378.46 494.505 369.347 476.397 C 382.778 470.589 395.85 467.78 409.997 464.346 z"/>
<path transform="translate(0,0)" fill="rgb(255,217,102)" d="M 1661.12 442.325 C 1676.52 424.903 1694.12 408.4 1709.58 391.013 C 1721.41 377.733 1733.06 364.302 1744.54 350.723 C 1750.97 343.069 1812.62 263.021 1834.01 265.658 C 1837 266.026 1840 280.933 1840.66 286.827 C 1843.39 311.196 1843.98 336.872 1844.01 361.641 C 1842.87 433.955 1831.43 489.631 1813.49 558.564 C 1811.4 566.021 1809.39 573.5 1806.85 580.814 C 1806.07 578.703 1799.39 561.635 1799.32 561.176 C 1792.05 547.904 1786.97 536.041 1778.75 523.053 C 1746.23 476.644 1714.48 460.753 1661.12 442.325 z"/>
<path transform="translate(0,0)" fill="rgb(255,193,7)" d="M 1778.75 523.053 C 1790.98 511.081 1827.41 382.278 1834.44 359.79 C 1835.26 362.627 1828.29 385.944 1826.95 391.284 C 1832.08 395.516 1835.08 401.766 1839.02 403.948 C 1842.81 400.113 1840.34 367.905 1842.54 360.48 L 1844.01 361.641 C 1842.87 433.955 1831.43 489.631 1813.49 558.564 C 1811.4 566.021 1809.39 573.5 1806.85 580.814 C 1806.07 578.703 1799.39 561.635 1799.32 561.176 C 1792.05 547.904 1786.97 536.041 1778.75 523.053 z"/>
<path transform="translate(0,0)" fill="rgb(255,217,102)" d="M 1799.32 561.176 L 1800.4 560.291 L 1801.03 561.126 C 1808.82 557.016 1803.77 563.804 1813.49 558.564 C 1811.4 566.021 1809.39 573.5 1806.85 580.814 C 1806.07 578.703 1799.39 561.635 1799.32 561.176 z"/>
<path transform="translate(0,0)" fill="rgb(255,217,102)" d="M 203.788 345.719 C 203.875 331.449 203.789 268.798 218.557 264.316 C 240.022 273.969 286.468 331.463 303.207 350.936 C 312.592 361.679 322.105 372.308 331.746 382.822 C 343.521 395.842 355.412 408.757 367.416 421.567 C 373.086 427.596 382.286 436.526 387.274 442.681 C 334.746 457.729 300.241 477.261 269.885 524.01 C 258.479 540.996 249.45 560.1 240.676 578.532 C 220.313 521.58 209.775 449.096 204.495 388.967 C 203.59 378.654 202.235 355.371 203.788 345.719 z"/>
<path transform="translate(0,0)" fill="rgb(255,193,7)" d="M 203.788 345.719 L 204.891 345.785 C 205.016 342.505 205.056 340.116 205.591 336.839 L 206.889 337.044 C 217.102 357.472 221.848 384.766 228.703 406.799 C 237.342 434.563 245.767 462.217 256.272 489.399 C 260.559 500.49 263.566 514.211 269.885 524.01 C 258.479 540.996 249.45 560.1 240.676 578.532 C 220.313 521.58 209.775 449.096 204.495 388.967 C 203.59 378.654 202.235 355.371 203.788 345.719 z"/>
<path transform="translate(0,0)" fill="rgb(96,177,85)" d="M 90.7658 1331.08 C 153.729 1308.42 273.778 1316.34 339.447 1328.66 C 338.291 1360.41 334.9 1395.38 334.808 1426.47 C 325.975 1434.25 297.704 1459.97 289.085 1464.73 C 263.728 1488.61 241.366 1515.48 222.49 1544.75 C 227.87 1519.99 250.75 1448.05 241.583 1431.52 C 221.996 1396.2 103.761 1348.1 71.0813 1337.11 C 78.2378 1334.45 83.3446 1333.02 90.7658 1331.08 z"/>
<path transform="translate(0,0)" fill="rgb(36,107,107)" d="M 90.7658 1331.08 C 153.729 1308.42 273.778 1316.34 339.447 1328.66 C 338.291 1360.41 334.9 1395.38 334.808 1426.47 C 325.975 1434.25 297.704 1459.97 289.085 1464.73 C 296.395 1446.99 309.965 1407 293.406 1391.2 C 252.608 1352.66 190.694 1340.02 136.671 1332.43 C 121.309 1330.27 105.122 1332.94 90.7658 1331.08 z"/>
<path transform="translate(0,0)" fill="rgb(96,177,85)" d="M 1708.75 1328.53 C 1780.81 1316.55 1884.61 1308.85 1954.59 1331.18 C 1962.88 1332.85 1967.25 1334.16 1975.16 1337.56 C 1963.12 1342.39 1951.53 1347.94 1938.3 1353.45 C 1903.72 1367.83 1823.41 1398.15 1805.1 1430.85 C 1797.2 1444.97 1820.48 1520.35 1824.79 1540.31 C 1816.43 1531.5 1805.92 1514.93 1797.83 1504.82 C 1785.79 1489.77 1774.4 1478.19 1760.95 1464.54 C 1744.5 1453.43 1729.5 1439.48 1711.95 1427.75 C 1712.92 1393.86 1711.25 1362.23 1708.75 1328.53 z"/>
<path transform="translate(0,0)" fill="rgb(36,107,107)" d="M 1708.75 1328.53 C 1780.81 1316.55 1884.61 1308.85 1954.59 1331.18 C 1949.3 1333.68 1926.11 1332.24 1917.82 1333.02 C 1867.6 1337.8 1777.1 1356.42 1748.41 1400.58 C 1749.23 1426.26 1749.72 1440.78 1760.95 1464.54 C 1744.5 1453.43 1729.5 1439.48 1711.95 1427.75 C 1712.92 1393.86 1711.25 1362.23 1708.75 1328.53 z"/>
<path transform="translate(0,0)" fill="rgb(96,177,85)" d="M 75.4921 979.891 C 151.558 981.213 285.015 1035.03 338.462 1090.85 C 341.215 1093.72 343.725 1096.58 345.637 1100.1 L 347.243 1128.58 C 347.788 1132.62 347.889 1136.77 347.984 1140.84 C 348.699 1171.46 352.058 1201.96 352.971 1232.58 C 346.667 1220.66 333.088 1202.35 324.769 1191.25 C 272.919 1122.07 214.149 1068.18 143.051 1019.52 C 120.165 1007.05 98.8858 991.982 75.4921 979.891 z"/>
<path transform="translate(0,0)" fill="rgb(172,220,126)" d="M 75.4921 979.891 C 151.558 981.213 285.015 1035.03 338.462 1090.85 C 341.215 1093.72 343.725 1096.58 345.637 1100.1 L 347.243 1128.58 C 347.001 1132.24 347.622 1133.98 345.704 1136.08 C 334.46 1128.99 324.234 1113.06 312.091 1105.23 C 271.873 1079.3 230.615 1054.66 188.059 1032.72 C 174.617 1025.79 158.596 1017.05 143.051 1019.52 C 120.165 1007.05 98.8858 991.982 75.4921 979.891 z"/>
<path transform="translate(0,0)" fill="rgb(96,177,85)" d="M 1703.1 1098.01 C 1712.66 1084.71 1727.71 1074.49 1741.06 1065.14 C 1798.52 1025.32 1863.82 998.248 1932.6 985.735 C 1945.13 983.37 1960.77 980.306 1973.35 979.688 C 1960.58 985.893 1951.35 990.837 1939.38 998.594 C 1928.76 1005.48 1916.96 1014.24 1906.01 1020.09 C 1889.47 1032.08 1866.28 1046.41 1851.3 1058.98 C 1796.54 1104.89 1732.13 1170.6 1694.9 1231.64 C 1695.1 1206.17 1699.23 1179.83 1700.07 1154.26 C 1700.21 1150.03 1700.73 1136.56 1701.67 1133.28 L 1703.1 1098.01 z"/>
<path transform="translate(0,0)" fill="rgb(172,220,126)" d="M 1703.1 1098.01 C 1712.66 1084.71 1727.71 1074.49 1741.06 1065.14 C 1798.52 1025.32 1863.82 998.248 1932.6 985.735 C 1945.13 983.37 1960.77 980.306 1973.35 979.688 C 1960.58 985.893 1951.35 990.837 1939.38 998.594 C 1928.76 1005.48 1916.96 1014.24 1906.01 1020.09 C 1880.32 1014.98 1760.08 1087.33 1735.86 1106.44 C 1730.67 1110.54 1706.05 1133.48 1702.46 1134.6 L 1701.67 1133.28 L 1703.1 1098.01 z"/>
<path transform="translate(0,0)" fill="rgb(36,107,107)" d="M 340.12 1454.05 C 341.265 1455.48 345.275 1472.66 346.524 1476.3 C 354.864 1500.62 363.484 1524.66 372.78 1548.62 C 355.463 1550.27 338.712 1553.04 321.504 1555.28 L 248.766 1564.24 C 237.968 1565.61 228.237 1566.78 217.546 1568.93 C 240.934 1537.79 307.539 1476.02 340.12 1454.05 z"/>
<path transform="translate(0,0)" fill="rgb(36,107,107)" d="M 1707.15 1455.51 C 1744.16 1479.93 1805.4 1533.22 1832.2 1569.11 C 1822.22 1566.87 1814.27 1565.65 1804.23 1564.22 C 1762.72 1559.28 1715.58 1554.17 1675.07 1545.43 C 1686.67 1518.18 1700.41 1484.19 1707.15 1455.51 z"/>
</svg>
