<svg xmlns="http://www.w3.org/2000/svg" viewBox="0 0 580 420" font-family="Arial, sans-serif">
  <!-- Background -->
  <rect width="580" height="420" rx="16" fill="#ffffff" stroke="#e2e8f0" stroke-width="2"/>

  <!-- Header -->
  <text x="30" y="40" font-size="20" font-weight="bold" fill="#1e293b">🛍️ Gestion de produits</text>

  <!-- Toolbar -->
  <rect x="20" y="58" width="260" height="36" rx="8" fill="#ffffff" stroke="#d1d5db" stroke-width="2"/>
  <text x="32" y="81" font-size="13" fill="#9ca3af">🔍 Rechercher un produit...</text>

  <rect x="290" y="58" width="140" height="36" rx="8" fill="#ffffff" stroke="#d1d5db" stroke-width="2"/>
  <text x="302" y="81" font-size="13" fill="#6b7280">Catégorie ▾</text>

  <rect x="440" y="58" width="120" height="36" rx="8" fill="#60B155" stroke="none"/>
  <text x="452" y="81" font-size="13" font-weight="bold" fill="#ffffff">➕ Ajouter</text>

  <!-- Table Header -->
  <rect x="20" y="110" width="540" height="36" rx="0" fill="#f8fafc"/>
  <line x1="20" y1="146" x2="560" y2="146" stroke="#e2e8f0" stroke-width="1"/>

  <text x="35" y="133" font-size="11" font-weight="600" fill="#64748b" text-transform="uppercase">IMAGE</text>
  <text x="110" y="133" font-size="11" font-weight="600" fill="#64748b">TITRE</text>
  <text x="310" y="133" font-size="11" font-weight="600" fill="#64748b">PRIX</text>
  <text x="400" y="133" font-size="11" font-weight="600" fill="#64748b">CATÉGORIE</text>
  <text x="500" y="133" font-size="11" font-weight="600" fill="#64748b">ACTIONS</text>

  <!-- Row 1 -->
  <rect x="35" y="156" width="50" height="50" rx="6" fill="#e2e8f0" stroke="#cbd5e1" stroke-width="1"/>
  <text x="48" y="186" font-size="18" fill="#94a3b8">🖼</text>

  <text x="110" y="178" font-size="14" fill="#1e293b">Essence Mascara</text>
  <text x="110" y="196" font-size="11" fill="#94a3b8">Lash Princess</text>

  <text x="310" y="185" font-size="14" font-weight="600" fill="#1e293b">9.99 $</text>

  <text x="400" y="185" font-size="13" fill="#64748b">beauty</text>

  <rect x="496" y="170" width="28" height="28" rx="6" fill="#33A6A6"/>
  <text x="502" y="190" font-size="13" fill="#ffffff">✏️</text>
  <rect x="528" y="170" width="28" height="28" rx="6" fill="#e74c3c"/>
  <text x="533" y="190" font-size="13" fill="#ffffff">🗑️</text>

  <line x1="20" y1="216" x2="560" y2="216" stroke="#f1f5f9" stroke-width="1"/>

  <!-- Row 2 -->
  <rect x="35" y="226" width="50" height="50" rx="6" fill="#e2e8f0" stroke="#cbd5e1" stroke-width="1"/>
  <text x="48" y="256" font-size="18" fill="#94a3b8">🖼</text>

  <text x="110" y="248" font-size="14" fill="#1e293b">Eyeshadow Palette</text>
  <text x="110" y="266" font-size="11" fill="#94a3b8">with Mirror</text>

  <text x="310" y="255" font-size="14" font-weight="600" fill="#1e293b">19.99 $</text>

  <text x="400" y="255" font-size="13" fill="#64748b">beauty</text>

  <rect x="496" y="240" width="28" height="28" rx="6" fill="#33A6A6"/>
  <text x="502" y="260" font-size="13" fill="#ffffff">✏️</text>
  <rect x="528" y="240" width="28" height="28" rx="6" fill="#e74c3c"/>
  <text x="533" y="260" font-size="13" fill="#ffffff">🗑️</text>

  <line x1="20" y1="286" x2="560" y2="286" stroke="#f1f5f9" stroke-width="1"/>

  <!-- Row 3 -->
  <rect x="35" y="296" width="50" height="50" rx="6" fill="#e2e8f0" stroke="#cbd5e1" stroke-width="1"/>
  <text x="48" y="326" font-size="18" fill="#94a3b8">🖼</text>

  <text x="110" y="318" font-size="14" fill="#1e293b">Powder Canister</text>
  <text x="110" y="336" font-size="11" fill="#94a3b8">Premium Quality</text>

  <text x="310" y="325" font-size="14" font-weight="600" fill="#1e293b">14.99 $</text>

  <text x="400" y="325" font-size="13" fill="#64748b">beauty</text>

  <rect x="496" y="310" width="28" height="28" rx="6" fill="#33A6A6"/>
  <text x="502" y="330" font-size="13" fill="#ffffff">✏️</text>
  <rect x="528" y="310" width="28" height="28" rx="6" fill="#e74c3c"/>
  <text x="533" y="330" font-size="13" fill="#ffffff">🗑️</text>

  <line x1="20" y1="356" x2="560" y2="356" stroke="#f1f5f9" stroke-width="1"/>

  <!-- Footer hint -->
  <text x="290" y="390" font-size="12" fill="#94a3b8" text-anchor="middle">Données chargées depuis DummyJSON API</text>
</svg>
