<svg xmlns="http://www.w3.org/2000/svg" viewBox="0 0 580 420" font-family="Arial, sans-serif">
  <!-- Background -->
  <rect width="580" height="420" rx="16" fill="#ffffff" stroke="#e2e8f0" stroke-width="2"/>

  <!-- Header -->
  <text x="30" y="40" font-size="20" font-weight="bold" fill="#1e293b">🛍️ Gestion de produits</text>

  <!-- Toolbar -->
  <rect x="20" y="58" width="180" height="36" rx="8" fill="#ffffff" stroke="#d1d5db" stroke-width="2"/>
  <text x="32" y="81" font-size="13" fill="#9ca3af">🔍 Rechercher...</text>

  <!-- Highlight zone: category + sort selects -->
  <rect x="204" y="52" width="266" height="48" rx="10" fill="none" stroke="#60B155" stroke-width="3" stroke-dasharray="8,4"/>

  <!-- Badge -->
  <rect x="310" y="42" width="150" height="24" rx="12" fill="#60B155"/>
  <text x="336" y="59" font-size="11" font-weight="bold" fill="#ffffff">✏️ À compléter</text>

  <!-- Category select (highlighted) -->
  <rect x="208" y="58" width="126" height="36" rx="8" fill="#ffffff" stroke="#60B155" stroke-width="2"/>
  <text x="218" y="81" font-size="13" fill="#1e293b">beauty ▾</text>

  <!-- Sort select (highlighted) -->
  <rect x="340" y="58" width="126" height="36" rx="8" fill="#ffffff" stroke="#60B155" stroke-width="2"/>
  <text x="350" y="81" font-size="13" fill="#1e293b">Prix ↑ ▾</text>

  <rect x="474" y="58" width="90" height="36" rx="8" fill="#60B155"/>
  <text x="484" y="81" font-size="13" font-weight="bold" fill="#ffffff">➕ Ajouter</text>

  <!-- Table Header -->
  <rect x="20" y="114" width="540" height="36" rx="0" fill="#f8fafc"/>
  <line x1="20" y1="150" x2="560" y2="150" stroke="#e2e8f0" stroke-width="1"/>
  <text x="35" y="137" font-size="11" font-weight="600" fill="#64748b">IMAGE</text>
  <text x="110" y="137" font-size="11" font-weight="600" fill="#64748b">TITRE</text>
  <text x="310" y="137" font-size="11" font-weight="600" fill="#64748b">PRIX ↑</text>
  <text x="400" y="137" font-size="11" font-weight="600" fill="#64748b">CATÉGORIE</text>
  <text x="500" y="137" font-size="11" font-weight="600" fill="#64748b">ACTIONS</text>

  <!-- Row 1: cheapest first (sorted by price asc) -->
  <rect x="35" y="160" width="50" height="50" rx="6" fill="#e2e8f0" stroke="#cbd5e1" stroke-width="1"/>
  <text x="48" y="190" font-size="18" fill="#94a3b8">🖼</text>
  <text x="110" y="182" font-size="14" fill="#1e293b">Essence Mascara</text>
  <text x="310" y="189" font-size="14" font-weight="600" fill="#60B155">9.99 $</text>
  <text x="400" y="189" font-size="13" fill="#64748b">beauty</text>
  <rect x="496" y="174" width="28" height="28" rx="6" fill="#33A6A6"/>
  <text x="502" y="194" font-size="13" fill="#ffffff">✏️</text>
  <rect x="528" y="174" width="28" height="28" rx="6" fill="#e74c3c"/>
  <text x="533" y="194" font-size="13" fill="#ffffff">🗑️</text>
  <line x1="20" y1="220" x2="560" y2="220" stroke="#f1f5f9" stroke-width="1"/>

  <!-- Row 2 -->
  <rect x="35" y="230" width="50" height="50" rx="6" fill="#e2e8f0" stroke="#cbd5e1" stroke-width="1"/>
  <text x="48" y="260" font-size="18" fill="#94a3b8">🖼</text>
  <text x="110" y="252" font-size="14" fill="#1e293b">Powder Canister</text>
  <text x="310" y="259" font-size="14" font-weight="600" fill="#60B155">14.99 $</text>
  <text x="400" y="259" font-size="13" fill="#64748b">beauty</text>
  <rect x="496" y="244" width="28" height="28" rx="6" fill="#33A6A6"/>
  <text x="502" y="264" font-size="13" fill="#ffffff">✏️</text>
  <rect x="528" y="244" width="28" height="28" rx="6" fill="#e74c3c"/>
  <text x="533" y="264" font-size="13" fill="#ffffff">🗑️</text>
  <line x1="20" y1="290" x2="560" y2="290" stroke="#f1f5f9" stroke-width="1"/>

  <!-- Row 3 -->
  <rect x="35" y="300" width="50" height="50" rx="6" fill="#e2e8f0" stroke="#cbd5e1" stroke-width="1"/>
  <text x="48" y="330" font-size="18" fill="#94a3b8">🖼</text>
  <text x="110" y="322" font-size="14" fill="#1e293b">Eyeshadow Palette</text>
  <text x="310" y="329" font-size="14" font-weight="600" fill="#60B155">19.99 $</text>
  <text x="400" y="329" font-size="13" fill="#64748b">beauty</text>
  <rect x="496" y="314" width="28" height="28" rx="6" fill="#33A6A6"/>
  <text x="502" y="334" font-size="13" fill="#ffffff">✏️</text>
  <rect x="528" y="314" width="28" height="28" rx="6" fill="#e74c3c"/>
  <text x="533" y="334" font-size="13" fill="#ffffff">🗑️</text>

  <!-- Explanation -->
  <rect x="20" y="370" width="540" height="38" rx="8" fill="#f0fdf4"/>
  <text x="40" y="394" font-size="12" font-weight="600" fill="#60B155">À implémenter : trierProduits() avec .sort() + filtre catégorie avec .filter()</text>
</svg>
